<?xml version="1.0" encoding="utf-8"?>
<!-- Generator: Adobe Illustrator 23.0.4, SVG Export Plug-In . SVG Version: 6.00 Build 0)  -->
<svg version="1.1" id="Layer_1" xmlns="http://www.w3.org/2000/svg" xmlns:xlink="http://www.w3.org/1999/xlink" x="0px" y="0px"
	 viewBox="0 0 33.2 33.2" style="enable-background:new 0 0 33.2 33.2;" xml:space="preserve">
<style type="text/css">
	.st0{fill:#FFFFFF;}
	.st1{fill:#EB5424;}
</style>
<g>
	<g>
		<g>
			<g>
				<g>
					<path class="st0" d="M26.3,27.4H6.9c-0.1,0-0.2-0.1-0.2-0.2V5.9c0-0.1,0.1-0.2,0.2-0.2h19.4c0.1,0,0.2,0.1,0.2,0.2v21.3
						C26.6,27.3,26.5,27.4,26.3,27.4z M7.2,26.9h18.9V6.3H7.2V26.9z"/>
				</g>
				<g>
					<path class="st0" d="M26.3,18.3c-0.1,0-0.2-0.1-0.2-0.2v-7.2H7.2V18c0,0.1-0.1,0.2-0.2,0.2S6.7,18.1,6.7,18v-7.5
						c0-0.1,0.1-0.2,0.2-0.2h19.4c0.1,0,0.2,0.1,0.2,0.2V18C26.6,18.1,26.5,18.3,26.3,18.3z"/>
				</g>
				<g>
					<g>
						<circle class="st0" cx="18.7" cy="8.2" r="0.7"/>
					</g>
					<g>
						<path class="st0" d="M24.3,8.4h-3.2c-0.1,0-0.2-0.1-0.2-0.2S21,8,21.1,8h3.2c0.1,0,0.2,0.1,0.2,0.2S24.5,8.4,24.3,8.4z"/>
					</g>
				</g>
			</g>
		</g>
	</g>
	<g>
		<path class="st1" d="M22.4,18L22.4,18c-0.6-0.2-0.8-0.9-0.4-1.3v-0.1c0.5-0.6,0-1.5-0.8-1.4h-0.1c-0.6,0.1-1.1-0.4-1-1v-0.1
			c0.1-0.8-0.8-1.3-1.4-0.8h-0.1c-0.4,0.4-1.1,0.2-1.3-0.4v-0.1c-0.3-0.7-1.3-0.7-1.6,0v0.1c-0.2,0.5-0.9,0.7-1.3,0.4h-0.1
			c-0.6-0.5-1.5,0-1.4,0.8v0.1c0.1,0.6-0.4,1.1-1,1h-0.1C11,15.1,10.5,16,11,16.6v0.1c0.4,0.4,0.2,1.1-0.4,1.3h-0.1
			c-0.7,0.3-0.7,1.3,0,1.6h0.1c0.5,0.2,0.7,0.9,0.4,1.3V21c-0.5,0.6,0,1.5,0.8,1.4h0.1c0.6-0.1,1.1,0.4,1,1v0.1
			c-0.1,0.8,0.8,1.3,1.4,0.8h0.1c0.4-0.4,1.1-0.2,1.3,0.4v0.1c0.3,0.7,1.3,0.7,1.6,0v-0.1c0.2-0.5,0.9-0.7,1.3-0.4h0.1
			c0.6,0.5,1.5,0,1.4-0.8v-0.1c-0.1-0.6,0.4-1.1,1-1h0.1c0.8,0.1,1.3-0.8,0.8-1.4v-0.1c-0.4-0.4-0.2-1.1,0.4-1.3h0.1
			C23.1,19.3,23.1,18.3,22.4,18z M16.7,20.8c-1.1,0-2-0.9-2-2s0.9-2,2-2s2,0.9,2,2S17.8,20.8,16.7,20.8z"/>
	</g>
	<g>
		<g>
			<path class="st0" d="M16.7,21.1c-1.3,0-2.3-1-2.3-2.3s1-2.3,2.3-2.3s2.3,1,2.3,2.3S17.9,21.1,16.7,21.1z M16.7,17
				c-1,0-1.8,0.8-1.8,1.8s0.8,1.8,1.8,1.8s1.8-0.8,1.8-1.8S17.6,17,16.7,17z"/>
		</g>
	</g>
	<g>
		<path class="st0" d="M16.7,21.1c-1.3,0-2.3-1-2.3-2.3s1-2.3,2.3-2.3s2.3,1,2.3,2.3S17.9,21.1,16.7,21.1z M16.7,17
			c-1,0-1.8,0.8-1.8,1.8s0.8,1.8,1.8,1.8s1.8-0.8,1.8-1.8S17.6,17,16.7,17z"/>
	</g>
</g>
</svg>
