<?xml version="1.0" encoding="utf-8"?>
<!-- Generator: Adobe Illustrator 23.0.4, SVG Export Plug-In . SVG Version: 6.00 Build 0)  -->
<svg version="1.1" id="Layer_1" xmlns="http://www.w3.org/2000/svg" xmlns:xlink="http://www.w3.org/1999/xlink" x="0px" y="0px"
	 viewBox="0 0 33.2 33.2" style="enable-background:new 0 0 33.2 33.2;" xml:space="preserve">
<style type="text/css">
	.st0{fill:#FFFFFF;}
	.st1{fill:#EB5424;}
</style>
<g>
	<g>
		<g>
			<path class="st0" d="M8.3,17c-0.1,0-0.1,0-0.2,0c-0.4-0.1-0.8-0.4-0.9-0.8L7,15.5C7,15.2,6.7,15,6.3,15l-0.7,0.1
				c-0.4,0.1-0.9-0.1-1.1-0.5c-0.3-0.4-0.3-0.8,0-1.2l0.4-0.6c0.1-0.3,0-0.6-0.3-0.8L4,11.6c-0.4-0.3-0.5-0.7-0.5-1.1s0.5-0.8,0.9-1
				l0.7-0.2c0.3,0,0.5-0.3,0.5-0.7L5.4,7.9c0-0.4,0.1-0.9,0.5-1.1c0.4-0.3,0.8-0.3,1.2,0l0.6,0.4c0.3,0.1,0.7,0,0.9-0.3L9,6.3
				C9.3,6,9.7,5.8,10.1,5.9C10.5,6,10.9,6.3,11,6.7l0.2,0.7c0.1,0.3,0.4,0.5,0.7,0.5l0.7-0.1c0.4-0.1,0.9,0.1,1.1,0.5
				c0.3,0.4,0.3,0.8,0,1.2l-0.4,0.6c-0.2,0.3-0.1,0.6,0.2,0.8l0.6,0.4c0.4,0.3,0.5,0.7,0.5,1.1c-0.1,0.4-0.4,0.8-0.8,0.9l-0.7,0.2
				c-0.3,0.1-0.5,0.4-0.5,0.7l0.1,0.7c0.1,0.4-0.1,0.9-0.5,1.1c-0.4,0.3-0.8,0.3-1.2,0l-0.6-0.4c-0.3-0.2-0.6-0.1-0.8,0.2l-0.4,0.6
				C9,16.8,8.7,17,8.3,17z M6.4,14.5c0.5,0,1,0.3,1.1,0.8L7.7,16c0.1,0.2,0.3,0.4,0.5,0.5c0.2,0,0.5-0.1,0.6-0.3l0.4-0.6
				c0.3-0.5,1-0.6,1.5-0.3l0.6,0.4c0.2,0.1,0.5,0.1,0.7,0s0.3-0.4,0.3-0.6l-0.1-0.7c-0.1-0.6,0.3-1.1,0.8-1.3l0.7-0.2
				c0.2-0.1,0.4-0.3,0.5-0.5s-0.1-0.5-0.3-0.6l-0.6-0.4c-0.5-0.3-0.6-1-0.3-1.5l0.4-0.6c0.1-0.2,0.1-0.5,0-0.7S13,8.3,12.8,8.3
				L12,8.4c-0.6,0.1-1.1-0.3-1.3-0.8l-0.2-0.7c-0.1-0.2-0.3-0.4-0.5-0.5c-0.2,0-0.5,0.1-0.6,0.3L9,7.2C8.7,7.7,8,7.8,7.5,7.5
				L6.9,7.2C6.6,7,6.4,7.1,6.2,7.2C6,7.3,5.9,7.6,5.9,7.8L6,8.5c0.1,0.6-0.3,1.1-0.8,1.3L4.5,10c-0.2,0.1-0.4,0.3-0.5,0.5
				c0,0.2,0.1,0.5,0.3,0.6l0.6,0.4c0.5,0.3,0.6,1,0.3,1.5l-0.4,0.6c-0.1,0.2-0.1,0.5,0,0.7s0.4,0.3,0.6,0.3l0.7-0.1
				C6.3,14.5,6.4,14.5,6.4,14.5z"/>
		</g>
		<g>
			<path class="st0" d="M9.1,13.8c-0.1,0-0.3,0-0.4,0c-0.6-0.1-1.2-0.5-1.5-1c-0.4-0.5-0.5-1.2-0.4-1.8s0.5-1.2,1-1.5
				C8.3,9.1,8.9,9,9.6,9.1c0.6,0.1,1.2,0.5,1.5,1c0.4,0.5,0.5,1.2,0.4,1.8l0,0C11.3,13,10.3,13.8,9.1,13.8z M9.1,9.6
				C8.7,9.6,8.3,9.7,8,9.9c-0.4,0.3-0.7,0.7-0.8,1.2c-0.2,1,0.5,2,1.5,2.2c0.5,0.1,1,0,1.4-0.3s0.7-0.7,0.8-1.2s0-1-0.3-1.4
				S10,9.7,9.5,9.6C9.3,9.6,9.2,9.6,9.1,9.6z M11.2,11.8L11.2,11.8L11.2,11.8z"/>
		</g>
		<g>
			<circle class="st1" cx="9.1" cy="11.4" r="0.7"/>
		</g>
	</g>
	<g>
		<path class="st0" d="M9.2,23.9c-0.1,0-0.2,0-0.2,0c-0.3-0.1-0.5-0.3-0.5-0.6l-0.2-1.4c0-0.1,0-0.1-0.1-0.2l-1-0.9
			C7,20.6,6.9,20.3,7,20s0.3-0.5,0.6-0.5L9,19.2c0.1,0,0.1,0,0.2-0.1l0.9-1c0.2-0.2,0.5-0.3,0.8-0.2c0.3,0.1,0.5,0.3,0.5,0.6
			l0.2,1.4c0,0.1,0,0.1,0.1,0.2l1,0.9c0.2,0.2,0.3,0.5,0.2,0.8s-0.3,0.5-0.6,0.5l0,0l-1.4,0.2c-0.1,0-0.1,0-0.2,0.1l-0.9,1
			C9.6,23.8,9.4,23.9,9.2,23.9z M10.6,18.3c-0.1,0-0.1,0-0.2,0.1l-0.9,1c-0.1,0.1-0.3,0.2-0.5,0.2l-1.4,0.2c-0.1,0-0.2,0.1-0.2,0.2
			s0,0.2,0.1,0.3l1,0.9c0.1,0.1,0.2,0.3,0.2,0.5l0.2,1.4c0,0.1,0.1,0.2,0.2,0.2c0.1,0,0.2,0,0.3-0.1l0.9-1c0.1-0.1,0.3-0.2,0.5-0.2
			l1.4-0.2c0.1,0,0.2-0.1,0.2-0.2s0-0.2-0.1-0.3l-1-0.9c-0.1-0.1-0.2-0.3-0.2-0.5l-0.2-1.4C10.9,18.5,10.8,18.4,10.6,18.3
			C10.7,18.3,10.7,18.3,10.6,18.3z M12.2,22.1L12.2,22.1L12.2,22.1z"/>
	</g>
	<g>
		<circle class="st1" cx="9.9" cy="20.8" r="0.7"/>
	</g>
	<g>
		<path class="st1" d="M21.5,14.6c-2.5,0-4.5,2-4.5,4.5s2,4.5,4.5,4.5s4.5-2,4.5-4.5S24,14.6,21.5,14.6z M21.5,21.7
			c-1.4,0-2.5-1.1-2.5-2.5s1.1-2.5,2.5-2.5s2.5,1.1,2.5,2.5S22.9,21.7,21.5,21.7z"/>
	</g>
	<g>
		<path class="st0" d="M21.5,21.9c-1.5,0-2.8-1.2-2.8-2.8s1.2-2.8,2.8-2.8s2.8,1.2,2.8,2.8S23,21.9,21.5,21.9z M21.5,16.9
			c-1.3,0-2.3,1-2.3,2.3s1,2.3,2.3,2.3s2.3-1,2.3-2.3S22.8,16.9,21.5,16.9z"/>
	</g>
	<g>
		<g>
			<path class="st0" d="M21.5,27.2c-0.5,0-1-0.3-1.2-0.8v-0.1c-0.1-0.2-0.3-0.4-0.5-0.5c-0.3-0.1-0.5,0-0.7,0.2L19,26.1
				c-0.4,0.4-1,0.4-1.5,0.1s-0.7-0.8-0.6-1.3v-0.1c0-0.3,0-0.5-0.2-0.7s-0.4-0.3-0.7-0.2h-0.1c-0.5,0.1-1.1-0.1-1.3-0.6
				c-0.3-0.5-0.2-1.1,0.1-1.5l0.1-0.1C15,21.5,15,21.2,15,21c-0.1-0.3-0.2-0.4-0.5-0.5h-0.1c-0.5-0.2-0.9-0.7-0.9-1.2s0.3-1,0.8-1.2
				h0.1c0.2-0.1,0.4-0.3,0.5-0.5s0-0.5-0.2-0.7l-0.1-0.1c-0.4-0.4-0.5-1.2-0.2-1.7c0.3-0.5,0.7-0.8,1.2-0.7h0.1c0.3,0,0.5,0,0.7-0.2
				s0.4-0.4,0.3-0.7v-0.1c-0.1-0.5,0.4-1.1,0.9-1.3c0.5-0.3,1-0.3,1.4,0l0.1,0.1c0.2,0.2,0.5,0.2,0.7,0.2c0.3-0.1,0.4-0.2,0.5-0.5
				v-0.1c0.2-0.5,0.8-0.7,1.3-0.7s0.9,0.2,1.1,0.7v0.1c0.1,0.2,0.3,0.4,0.5,0.5c0.3,0.1,0.5,0,0.7-0.2l0.1-0.1c0.4-0.4,1-0.3,1.5,0
				s0.7,0.8,0.6,1.3v0.1c0,0.3,0,0.5,0.2,0.7s0.4,0.3,0.7,0.2H27c0.5-0.1,1.2,0.2,1.4,0.7c0.3,0.5,0.2,1.2-0.1,1.6l-0.1,0.1
				C28,16.9,28,17.2,28,17.4c0.1,0.3,0.2,0.4,0.5,0.5h0.1c0.5,0.2,0.8,0.7,0.8,1.2s-0.5,1.1-1,1.3l0,0h-0.1
				c-0.2,0.1-0.3,0.3-0.4,0.5c-0.1,0.3,0,0.5,0.2,0.7l0.1,0.1c0.4,0.4,0.3,1,0,1.5S27.5,24,27,23.9h-0.1c-0.3,0-0.4,0-0.6,0.2
				s-0.3,0.4-0.2,0.7v0.1c0.1,0.5-0.2,1.1-0.7,1.3c-0.5,0.3-0.9,0.1-1.3-0.2l0,0c-0.2-0.2-0.6-0.3-0.8-0.3c-0.3,0.1-0.4,0.2-0.5,0.5
				v0.1C22.5,26.8,22,27.2,21.5,27.2z M19.5,25.2c0.1,0,0.2,0,0.3,0c0.4,0.1,0.7,0.4,0.9,0.8v0.1c0.1,0.4,0.5,0.5,0.7,0.5
				s0.6-0.1,0.7-0.5V26c0.1-0.4,0.5-0.7,0.9-0.8c0.4-0.1,0.8,0,1.2,0.3l0.1,0.1c0.3,0.3,0.7,0.2,0.9,0.1c0.2-0.1,0.5-0.4,0.4-0.8
				v-0.1c-0.1-0.4,0.1-0.8,0.4-1.1s0.7-0.4,1.1-0.4h0.1c0.4,0.1,0.7-0.1,0.8-0.4c0.1-0.2,0.2-0.6-0.1-0.9l-0.1-0.1
				c-0.3-0.3-0.4-0.8-0.3-1.2s0.4-0.7,0.8-0.9h0.1c0.4-0.1,0.5-0.5,0.5-0.7s-0.1-0.6-0.5-0.7h-0.1c-0.4-0.1-0.7-0.5-0.8-0.9
				c-0.1-0.4,0-0.8,0.3-1.2l0.1-0.1c0.3-0.3,0.2-0.7,0.1-0.9s-0.4-0.5-0.8-0.4h-0.1c-0.4,0.1-0.8-0.1-1.1-0.4
				c-0.3-0.3-0.4-0.7-0.4-1.1v-0.1c0.1-0.4-0.1-0.7-0.4-0.8c-0.2-0.1-0.6-0.2-0.9,0.1l-0.1,0.1C24,13,23.6,13.1,23.1,13
				c-0.4-0.1-0.7-0.4-0.9-0.8v-0.1c-0.1-0.4-0.5-0.5-0.7-0.5s-0.6,0.1-0.7,0.5v0.1c-0.1,0.4-0.5,0.7-0.9,0.8s-0.8,0-1.2-0.3
				l-0.1-0.1c-0.3-0.3-0.7-0.2-0.9-0.1c-0.2,0.1-0.5,0.4-0.4,0.8v0.1c0.1,0.4-0.1,0.8-0.4,1.1s-0.7,0.4-1.1,0.4h-0.1
				c-0.4-0.1-0.7,0.1-0.8,0.4c-0.1,0.2-0.2,0.6,0.1,0.9l0.1,0.1c0.3,0.3,0.4,0.8,0.3,1.2c-0.1,0.4-0.4,0.7-0.8,0.9h-0.1
				c-0.4,0.1-0.5,0.5-0.5,0.7s0.1,0.6,0.5,0.7h0.1c0.4,0.1,0.7,0.5,0.8,0.9s0,0.8-0.3,1.2L15,22c-0.3,0.3-0.2,0.7-0.1,0.9
				c0.1,0.2,0.4,0.5,0.8,0.4h0.1c0.4-0.1,0.8,0.1,1.1,0.4s0.4,0.7,0.4,1.1v0.1c-0.1,0.4,0.1,0.7,0.4,0.8c0.2,0.1,0.6,0.2,0.9-0.1
				l0.1-0.1C18.9,25.3,19.2,25.2,19.5,25.2z M28.6,20.1L28.6,20.1L28.6,20.1z"/>
		</g>
	</g>
</g>
</svg>
