<?xml version="1.0" encoding="utf-8"?>
<!-- Generator: Adobe Illustrator 23.0.4, SVG Export Plug-In . SVG Version: 6.00 Build 0)  -->
<svg version="1.1" id="Layer_1" xmlns="http://www.w3.org/2000/svg" xmlns:xlink="http://www.w3.org/1999/xlink" x="0px" y="0px"
	 viewBox="0 0 33.2 33.2" style="enable-background:new 0 0 33.2 33.2;" xml:space="preserve">
<style type="text/css">
	.st0{fill:#FFFFFF;}
	.st1{fill:#EB5424;}
</style>
<g>
	<g>
		<path class="st0" d="M22.6,23.5H9.9c-2.1,0-4.1-2-4.1-4.2c0-2.1,1.6-3.8,3.7-3.8c0.5-3.2,3.3-5.6,6.5-5.6c2.4,0,4.7,1.3,5.8,3.3
			c0.2,0,0.4,0,0.6,0c2.8,0,5.1,2.4,5.1,5.2S25.3,23.5,22.6,23.5z M9.7,15.8V16c-1.8,0-3.3,1.5-3.3,3.4s1.5,3.4,3.4,3.4h12.7
			c2.5,0,4.5-2,4.5-4.5c0-2.7-2.4-4.8-5.1-4.4c-0.1,0-0.2,0-0.3-0.1c-1.1-2-3.1-3.2-5.4-3.2c-3.1,0-5.7,2.3-6.1,5.3
			c0,0.1-0.1,0.2-0.3,0.2L9.7,15.8z"/>
	</g>
	<g>
		<path class="st1" d="M15.7,10.5c0,0,3.7,0.4,4.7,5l1.1-1.8C21.5,13.7,19.9,10.3,15.7,10.5z"/>
	</g>
</g>
</svg>
