<?xml version="1.0" encoding="utf-8"?>
<!-- Generator: Adobe Illustrator 23.0.4, SVG Export Plug-In . SVG Version: 6.00 Build 0)  -->
<svg version="1.1" id="Layer_1" xmlns="http://www.w3.org/2000/svg" xmlns:xlink="http://www.w3.org/1999/xlink" x="0px" y="0px"
	 viewBox="0 0 33.2 33.2" style="enable-background:new 0 0 33.2 33.2;" xml:space="preserve">
<style type="text/css">
	.st0{fill:#FFFFFF;}
	.st1{fill:#EB5424;}
</style>
<g>
	<g>
		<g>
			<path class="st0" d="M28.1,25.9h-23c-0.1,0-0.2-0.1-0.2-0.2V7.6c0-0.1,0.1-0.2,0.2-0.2h23c0.1,0,0.2,0.1,0.2,0.2v18.1
				C28.4,25.8,28.3,25.9,28.1,25.9z M5.4,25.4h22.5V7.9H5.4V25.4z"/>
		</g>
		<g>
			<path class="st0" d="M28.1,10.9h-23c-0.1,0-0.2-0.1-0.2-0.2s0.1-0.2,0.2-0.2h23c0.1,0,0.2,0.1,0.2,0.2S28.3,10.9,28.1,10.9z"/>
		</g>
		<g>
			<circle class="st0" cx="6.6" cy="9.1" r="0.5"/>
		</g>
		<g>
			<circle class="st0" cx="8.6" cy="9.1" r="0.5"/>
		</g>
		<g>
			<circle class="st0" cx="10.6" cy="9.1" r="0.5"/>
		</g>
	</g>
	<g>
		<path class="st0" d="M20.6,19.9h-8c-0.1,0-0.2-0.1-0.2-0.2v-2c0-0.1,0.1-0.2,0.2-0.2h8c0.1,0,0.2,0.1,0.2,0.2v2
			C20.9,19.8,20.8,19.9,20.6,19.9z M12.9,19.4h7.5v-1.5h-7.5V19.4z"/>
	</g>
	<g>
		<g>
			<rect x="5.4" y="10.9" class="st1" width="22.5" height="2.5"/>
		</g>
	</g>
</g>
</svg>
