<svg id="Layer_1" data-name="Layer 1" xmlns="http://www.w3.org/2000/svg" viewBox="0 0 33.24 33.24"><defs><style>.cls-1{fill:#eb5424;}.cls-2{fill:#fff;}</style></defs><title>Artboard 17</title><path d="M24.49,27.46H8.75a.25.25,0,0,1-.25-.25V6a.25.25,0,0,1,.25-.25H24.49a.25.25,0,0,1,.25.25V27.21A.25.25,0,0,1,24.49,27.46ZM9,27H24.24V6.28H9Z"/><path d="M21.2,21.15H12a.25.25,0,0,1,0-.5H21.2a.25.25,0,0,1,0,.5Z"/><path d="M21.2,23.79H12a.25.25,0,0,1,0-.5H21.2a.25.25,0,0,1,0,.5Z"/><path class="cls-1" d="M15.72,13.63a2.16,2.16,0,1,1,1.8,0h0v.88l-.29.61.29.46-.26.3.32.54-.46.43.4.91-1.09.64-.72-.7V13.63Z"/><circle class="cls-2" cx="16.62" cy="11.02" r="0.47"/></svg>