<?xml version="1.0" encoding="utf-8"?>
<!-- Generator: Adobe Illustrator 23.0.4, SVG Export Plug-In . SVG Version: 6.00 Build 0)  -->
<svg version="1.1" id="Layer_1" xmlns="http://www.w3.org/2000/svg" xmlns:xlink="http://www.w3.org/1999/xlink" x="0px" y="0px"
	 viewBox="0 0 33.2 33.2" style="enable-background:new 0 0 33.2 33.2;" xml:space="preserve">
<style type="text/css">
	.st0{fill:#FFFFFF;}
	.st1{fill:#EB5424;}
</style>
<g>
	<g>
		<g>
			<path class="st0" d="M9.9,24.6H5.1c-0.1,0-0.2-0.1-0.2-0.2V13.1c0-0.1,0.1-0.2,0.2-0.2h3.7C8.9,12.8,9,13,9,13.1
				s-0.1,0.2-0.2,0.2H5.4V24H10c0.1,0,0.2,0.1,0.2,0.2S10.1,24.6,9.9,24.6z"/>
		</g>
		<g>
			<path class="st0" d="M28.1,24.6h-2.9c-0.1,0-0.2-0.1-0.2-0.2s0.1-0.2,0.2-0.2h2.9c0.1,0,0.2,0.1,0.2,0.2S28.3,24.6,28.1,24.6z"/>
		</g>
		<g>
			<path class="st1" d="M14.4,27.9h-1.7c-1.9,0-3.5-1.6-3.5-3.5l0,0c0-1.9,1.6-3.5,3.5-3.5h1.7V27.9z"/>
		</g>
		<g>
			<g>
				<path class="st0" d="M20.3,23.1h-2.6c-0.1,0-0.2-0.1-0.2-0.2s0.1-0.2,0.2-0.2h2.6c0.1,0,0.2,0.1,0.2,0.2S20.4,23.1,20.3,23.1z"
					/>
			</g>
			<g>
				<path class="st0" d="M20.3,26.1h-2.6c-0.1,0-0.2-0.1-0.2-0.2s0.1-0.2,0.2-0.2h2.6c0.1,0,0.2,0.1,0.2,0.2S20.4,26.1,20.3,26.1z"
					/>
			</g>
		</g>
		<g>
			<path class="st0" d="M20.5,20.8h1.7c1.9,0,3.5,1.6,3.5,3.5l0,0c0,1.9-1.6,3.5-3.5,3.5h-1.7V20.8z"/>
		</g>
	</g>
	<g>
		<path class="st0" d="M9.2,14.1L9.2,14.1c-0.6,0-1.1-0.5-1.1-1.1l0,0c0-0.6,0.5-1.1,1.1-1.1l0,0"/>
	</g>
	<g>
		<g>
			<path class="st0" d="M22.2,16.2H11.9c-1.8,0-3.2-1.5-3.2-3.3c0-1.7,1.5-3.2,3.2-3.3c0.4-2.6,2.7-4.5,5.4-4.5c1.9,0,3.7,1,4.7,2.7
				c0.1,0,0.3,0,0.4,0c2.3,0,4.1,1.8,4.1,4.1S24.5,16.2,22.2,16.2z M12,10.2c-1.5,0-2.7,1.2-2.7,2.7s1.2,2.7,2.7,2.7h10.3
				c2,0,3.6-1.6,3.6-3.6s-1.6-3.6-3.6-3.6c-0.2,0-0.3,0-0.5,0.1c-0.1,0-0.2,0-0.3-0.1c-0.9-1.6-2.5-2.6-4.3-2.6
				c-2.5,0-4.6,1.9-4.9,4.3C12.3,10.1,12.2,10.2,12,10.2z"/>
		</g>
		<g>
			<path class="st1" d="M16.9,5.6c0,0,3,0.3,3.9,4.1l0.9-1.5C21.6,8.3,20.4,5.4,16.9,5.6z"/>
		</g>
	</g>
</g>
</svg>
