<?xml version="1.0" encoding="utf-8"?>
<!-- Generator: Adobe Illustrator 23.0.4, SVG Export Plug-In . SVG Version: 6.00 Build 0)  -->
<svg version="1.1" id="Layer_1" xmlns="http://www.w3.org/2000/svg" xmlns:xlink="http://www.w3.org/1999/xlink" x="0px" y="0px"
	 viewBox="0 0 33.2 33.2" style="enable-background:new 0 0 33.2 33.2;" xml:space="preserve">
<style type="text/css">
	.st0{fill:#FFFFFF;}
	.st1{fill:#EB5424;}
</style>
<g>
	<g>
		<g>
			<g>
				<path class="st0" d="M28.1,25.9h-23c-0.1,0-0.2-0.1-0.2-0.2L4.8,7.6c0-0.1,0.1-0.2,0.2-0.2h23c0.1,0,0.2,0.1,0.2,0.2l0.1,18.1
					C28.4,25.8,28.3,25.9,28.1,25.9z M5.4,25.4h22.5V7.9H5.4V25.4z"/>
			</g>
			<g>
				<path class="st0" d="M28.1,10.9h-23c-0.1,0-0.2-0.1-0.2-0.2s0.1-0.2,0.2-0.2h23c0.1,0,0.2,0.1,0.2,0.2S28.3,10.9,28.1,10.9z"/>
			</g>
			<g>
				<circle class="st0" cx="6.6" cy="9.1" r="0.5"/>
			</g>
			<g>
				<circle class="st0" cx="8.6" cy="9.1" r="0.5"/>
			</g>
			<g>
				<circle class="st0" cx="10.6" cy="9.1" r="0.5"/>
			</g>
		</g>
	</g>
	<g>
		<path class="st0" d="M27.9,14.5H5.5c-0.1,0-0.2-0.1-0.2-0.2s0-0.3,0.2-0.3H28c0.1,0,0.2,0.1,0.2,0.2S28,14.5,27.9,14.5z"/>
	</g>
	<g>
		<path class="st0" d="M11.6,17.1H8c-0.1,0-0.2-0.1-0.2-0.2s0.1-0.2,0.2-0.2h3.7c0.1,0,0.2,0.1,0.2,0.2S11.8,17.1,11.6,17.1z"/>
	</g>
	<g>
		<path class="st1" d="M13.7,12.6H10c-0.1,0-0.2-0.1-0.2-0.2s0.1-0.2,0.2-0.2h3.7c0.1,0,0.2,0.1,0.2,0.2S13.9,12.6,13.7,12.6z"/>
	</g>
	<g>
		<path class="st0" d="M11.6,19.1H8c-0.1,0-0.2-0.1-0.2-0.2s0.1-0.2,0.2-0.2h3.7c0.1,0,0.2,0.1,0.2,0.2S11.8,19.1,11.6,19.1z"/>
	</g>
	<g>
		<path class="st0" d="M11.6,21.1H8c-0.1,0-0.2-0.1-0.2-0.2s0.1-0.2,0.2-0.2h3.7c0.1,0,0.2,0.1,0.2,0.2S11.8,21.1,11.6,21.1z"/>
	</g>
	<g>
		<path class="st0" d="M11.6,23.1H8c-0.1,0-0.2-0.1-0.2-0.2s0.1-0.2,0.2-0.2h3.7c0.1,0,0.2,0.1,0.2,0.2S11.8,23.1,11.6,23.1z"/>
	</g>
	<g>
		<circle class="st0" cx="8.2" cy="12.4" r="0.6"/>
	</g>
	<g>
		<g>
			<path class="st1" d="M18.7,18.7c-0.4,1.2,0,2.4,1,3.1l0.6-1.9L18.7,18.7z"/>
		</g>
		<g>
			<polygon class="st1" points="21.4,16.7 19.3,16.7 18.7,18.7 20.7,18.7 			"/>
		</g>
		<g>
			<polygon class="st1" points="24.1,18.7 23.4,16.7 21.4,16.7 22,18.7 			"/>
		</g>
		<g>
			<polygon class="st1" points="19.7,21.8 21.4,23 23,21.8 21.4,20.6 			"/>
		</g>
		<g>
			<path class="st1" d="M24.1,18.7l-1.7,1.2l0.6,1.9C24,21.1,24.4,19.8,24.1,18.7z"/>
		</g>
	</g>
	<g>
		<path class="st0" d="M14.3,25.6c-0.1,0-0.2-0.1-0.2-0.2V14.2c0-0.1,0.1-0.2,0.2-0.2s0.2,0.1,0.2,0.2v11.1
			C14.5,25.5,14.4,25.6,14.3,25.6z"/>
	</g>
</g>
</svg>
