<svg width="48" height="48" viewBox="0 0 48 48" fill="none" xmlns="http://www.w3.org/2000/svg">
<path d="M34 38.5L27.8835 32.119C26.7761 31.0117 26.7761 29.2155 27.8835 28.1081C28.9908 27.0008 30.7871 27.0008 31.8944 28.1081L38.0109 34.4891" fill="#D0CEFF"/>
<path d="M15.8296 20.0651L5.83051 10.0661C4.72316 8.95871 4.72316 7.1625 5.83051 6.05515C6.93786 4.9478 8.73407 4.9478 9.84142 6.05515L19.8405 16.0542C20.9478 17.1616 20.9478 18.9578 19.8405 20.0651C18.7331 21.1725 16.9369 21.1725 15.8296 20.0651Z" fill="#D0CEFF"/>
<path d="M37.9225 34.1339L40.544 31.5124C41.8182 30.2382 44 31.141 44 32.9442V42.1251C44 43.2442 43.0925 44.1494 41.9757 44.1494H32.7949C30.9916 44.1494 30.0888 41.9676 31.3631 40.6933L33.9116 38.1448" fill="#D0CEFF"/>
<path d="M33.9492 10.0496L31.3254 7.42582C30.0511 6.15154 30.9539 3.96976 32.7572 3.96976H41.9381C43.0572 3.96976 43.9624 4.87727 43.9624 5.99402V15.1749C43.9624 16.9782 41.7806 17.881 40.5063 16.6067L37.9601 14.0605" fill="#635DFF"/>
<path d="M33.9492 10.0496L27.8858 16.113L5.83289 38.1659C4.72554 39.2733 4.72554 41.0695 5.83289 42.1768C6.94024 43.2842 8.73645 43.2842 9.8438 42.1768L37.9601 14.0605" fill="#635DFF"/>
</svg>
