<svg xmlns="http://www.w3.org/2000/svg" width="48" height="48" fill="none" viewBox="0 0 48 48"><path fill="#D0CEFF" d="M6.00001 19.9138C6.00001 18.7378 6.59063 17.6404 7.57217 16.9926L22.0722 7.42339C23.2416 6.65167 24.7585 6.65167 25.9279 7.42339L40.4279 16.9926C41.4094 17.6404 42 18.7378 42 19.9138L42 38.5001C42 40.4331 40.433 42 38.5 42H9.5C7.567 42 6 40.433 6 38.5L6.00001 19.9138Z"/><path fill="#A5A0FF" d="M42 20.0301L6 20.0301L21.8418 32.4389C23.1093 33.4317 24.8907 33.4317 26.1582 32.4389L42 20.0301Z"/><path fill="#A5A0FF" fill-rule="evenodd" d="M7.57216 17.0144C6.59062 17.6621 6 18.7595 6 19.9356V20.0302H42V19.9356C42 18.7595 41.4094 17.6621 40.4278 17.0144L25.9278 7.44513C24.7585 6.6734 23.2415 6.6734 22.0722 7.44513L7.57216 17.0144Z" clip-rule="evenodd"/><rect width="24" height="12" x="12" y="16.03" fill="#635DFF" rx="1.5"/><circle cx="16.777" cy="22.03" r="1.278" fill="#fff"/><circle cx="21.593" cy="22.03" r="1.278" fill="#fff"/><circle cx="26.407" cy="22.03" r="1.278" fill="#fff"/><circle cx="31.223" cy="22.03" r="1.278" fill="#fff"/></svg>