<svg xmlns="http://www.w3.org/2000/svg" width="48" height="48" fill="none" viewBox="0 0 48 48"><path fill="#D0CEFF" d="M5 10.8C5 8.70132 6.70132 7 8.8 7H26.5333C28.632 7 30.3333 8.70132 30.3333 10.8V40.7778H8.8C6.70131 40.7778 5 39.0765 5 36.9778V10.8Z"/><path fill="#635DFF" d="M30.3334 15.4444H39.2C41.2987 15.4444 43 17.1458 43 19.2444V36.9778C43 39.0765 41.2987 40.7778 39.2 40.7778H30.3334V15.4444Z"/><rect width="4.222" height="4.222" x="11.333" y="13.333" fill="#635DFF" rx="1"/><rect width="4.222" height="4.222" x="11.333" y="21.778" fill="#635DFF" rx="1"/><rect width="4.222" height="4.222" x="11.333" y="30.222" fill="#635DFF" rx="1"/><rect width="4.222" height="4.222" x="19.778" y="13.333" fill="#635DFF" rx="1"/><rect width="4.222" height="4.222" x="19.778" y="21.778" fill="#635DFF" rx="1"/><rect width="4.222" height="4.222" x="34.556" y="21.778" fill="#D0CEFF" rx="1"/><rect width="4.222" height="4.222" x="34.556" y="30.222" fill="#D0CEFF" rx="1"/><rect width="4.222" height="4.222" x="19.778" y="30.222" fill="#635DFF" rx="1"/></svg>