<svg xmlns="http://www.w3.org/2000/svg" width="48" height="48" fill="none" viewBox="0 0 48 48"><rect width="44" height="23.897" x="2" y="6.103" fill="#D0CEFF" rx="3.5"/><circle cx="9.698" cy="18.051" r="1.698" fill="#635DFF"/><circle cx="15.851" cy="18.051" r="1.698" fill="#635DFF"/><circle cx="22.005" cy="18.051" r="1.698" fill="#635DFF"/><circle cx="28.159" cy="18.051" r="1.698" fill="#635DFF"/><circle cx="34.313" cy="18.051" r="1.698" fill="#635DFF"/><rect width="1.232" height="11.547" x="38.768" y="12.278" fill="#635DFF" rx=".616"/><path fill="#635DFF" d="M23.9999 42C28.4182 42 31.9999 38.4183 31.9999 34C31.9999 29.5817 28.4182 26 23.9999 26C19.5817 26 15.9999 29.5817 15.9999 34C15.9999 38.4183 19.5817 42 23.9999 42Z"/><path fill="#fff" fill-rule="evenodd" d="M24 28.6C24.5523 28.6 25 29.0477 25 29.6V33.7819L27.6472 35.1055C28.1412 35.3525 28.3414 35.9532 28.0944 36.4472C27.8474 36.9412 27.2468 37.1414 26.7528 36.8944L23.5528 35.2944C23.214 35.125 23 34.7787 23 34.4V29.6C23 29.0477 23.4477 28.6 24 28.6Z" clip-rule="evenodd"/></svg>