<svg width="48" height="49" viewBox="0 0 48 49" fill="none" xmlns="http://www.w3.org/2000/svg">
<g clip-path="url(#clip0_1019_233)">
<path d="M14.8123 14.2604C15.1324 14.2559 15.4465 14.3468 15.7147 14.5213C15.983 14.6959 16.1933 14.9463 16.3188 15.2407C16.4444 15.5351 16.4796 15.8602 16.4199 16.1746C16.3602 16.4891 16.2083 16.7787 15.9835 17.0065C15.7588 17.2344 15.4714 17.3903 15.1578 17.4544C14.8442 17.5185 14.5187 17.4879 14.2226 17.3665C13.9265 17.2451 13.6731 17.0383 13.4948 16.7725C13.3165 16.5067 13.2213 16.1939 13.2213 15.8738C13.2212 15.4498 13.3881 15.0427 13.6859 14.7408C13.9836 14.4389 14.3883 14.2663 14.8123 14.2604ZM14.8123 12.2884C14.1042 12.2928 13.4132 12.5069 12.8265 12.9035C12.2398 13.3002 11.7838 13.8617 11.5158 14.5172C11.2479 15.1727 11.1801 15.8929 11.3209 16.5869C11.4618 17.281 11.805 17.9177 12.3074 18.4169C12.8097 18.9161 13.4486 19.2554 14.1435 19.3919C14.8383 19.5285 15.5581 19.4562 16.2119 19.1841C16.8658 18.9121 17.4244 18.4526 17.8174 17.8634C18.2104 17.2743 18.4202 16.582 18.4202 15.8738C18.4202 15.4011 18.3267 14.933 18.1451 14.4966C17.9635 14.0601 17.6974 13.6638 17.3621 13.3306C17.0268 12.9974 16.6289 12.7337 16.1913 12.5549C15.7537 12.376 15.2851 12.2854 14.8123 12.2884Z" fill="#65676E"/>
<path d="M14.8123 39.56C15.1324 39.5555 15.4465 39.6463 15.7147 39.8209C15.983 39.9955 16.1933 40.2459 16.3188 40.5403C16.4444 40.8347 16.4796 41.1598 16.4199 41.4742C16.3602 41.7886 16.2083 42.0782 15.9835 42.3061C15.7588 42.534 15.4714 42.6899 15.1578 42.754C14.8442 42.8181 14.5187 42.7875 14.2226 42.666C13.9265 42.5446 13.6731 42.3379 13.4948 42.0721C13.3165 41.8063 13.2213 41.4935 13.2213 41.1734C13.2212 40.7493 13.3881 40.3423 13.6859 40.0404C13.9836 39.7384 14.3883 39.5658 14.8123 39.56ZM14.8123 37.588C14.1042 37.5924 13.4132 37.8064 12.8265 38.2031C12.2398 38.5997 11.7838 39.1612 11.5158 39.8168C11.2479 40.4723 11.1801 41.1925 11.3209 41.8865C11.4618 42.5805 11.805 43.2173 12.3074 43.7165C12.8097 44.2157 13.4486 44.5549 14.1435 44.6915C14.8383 44.828 15.5581 44.7557 16.2119 44.4837C16.8658 44.2117 17.4244 43.7521 17.8174 43.163C18.2104 42.5739 18.4202 41.8816 18.4202 41.1734C18.4202 40.7007 18.3267 40.2326 18.1451 39.7961C17.9635 39.3596 17.6974 38.9634 17.3621 38.6302C17.0268 38.2969 16.6289 38.0333 16.1913 37.8544C15.7537 37.6756 15.2851 37.585 14.8123 37.588Z" fill="#65676E"/>
<path d="M33.2101 39.5599C33.5292 39.5599 33.8411 39.6545 34.1065 39.8318C34.3718 40.0091 34.5786 40.2611 34.7007 40.5559C34.8228 40.8507 34.8548 41.1751 34.7925 41.4881C34.7303 41.8011 34.5766 42.0886 34.351 42.3142C34.1253 42.5398 33.8378 42.6935 33.5249 42.7558C33.2119 42.818 32.8874 42.7861 32.5926 42.664C32.2978 42.5418 32.0458 42.335 31.8686 42.0697C31.6913 41.8044 31.5966 41.4924 31.5966 41.1733C31.5936 40.9606 31.6333 40.7494 31.7133 40.5523C31.7933 40.3552 31.912 40.1762 32.0625 40.0257C32.2129 39.8753 32.392 39.7566 32.5891 39.6766C32.7862 39.5965 32.9974 39.5569 33.2101 39.5599ZM33.2101 37.5879C32.5009 37.5879 31.8077 37.7982 31.2181 38.1921C30.6285 38.5861 30.1689 39.1461 29.8976 39.8012C29.6262 40.4564 29.5552 41.1773 29.6935 41.8728C29.8319 42.5683 30.1734 43.2072 30.6748 43.7086C31.1762 44.21 31.8151 44.5515 32.5106 44.6899C33.2061 44.8282 33.927 44.7572 34.5822 44.4858C35.2373 44.2145 35.7973 43.7549 36.1912 43.1653C36.5852 42.5757 36.7955 41.8825 36.7955 41.1733C36.7955 40.2224 36.4178 39.3104 35.7454 38.638C35.073 37.9656 34.161 37.5879 33.2101 37.5879Z" fill="#C4C4C4"/>
<path d="M9.63583 27.056C10.0637 27.056 10.4741 27.226 10.7767 27.5285C11.0793 27.8311 11.2493 28.2415 11.2493 28.6694C11.2493 29.0973 11.0793 29.5077 10.7767 29.8103C10.4741 30.1129 10.0637 30.2829 9.63583 30.2829C9.20792 30.2829 8.79756 30.1129 8.49498 29.8103C8.1924 29.5077 8.0224 29.0973 8.0224 28.6694C8.0224 28.2415 8.1924 27.8311 8.49498 27.5285C8.79756 27.226 9.20792 27.056 9.63583 27.056ZM9.63583 25.084C8.9267 25.084 8.23352 25.2943 7.64389 25.6882C7.05427 26.0822 6.59472 26.6422 6.32335 27.2973C6.05197 27.9525 5.98096 28.6734 6.11931 29.3689C6.25765 30.0644 6.59912 30.7033 7.10055 31.2047C7.60198 31.7061 8.24087 32.0476 8.93637 32.186C9.63188 32.3243 10.3528 32.2533 11.0079 31.9819C11.6631 31.7106 12.2231 31.251 12.617 30.6614C13.011 30.0718 13.2213 29.3785 13.2213 28.6694C13.2213 27.7185 12.8435 26.8065 12.1711 26.1341C11.4987 25.4617 10.5867 25.084 9.63583 25.084Z" fill="#C4C4C4"/>
<path d="M38.4089 27.056C38.8369 27.056 39.2472 27.226 39.5498 27.5285C39.8524 27.8311 40.0224 28.2415 40.0224 28.6694C40.0224 29.0973 39.8524 29.5077 39.5498 29.8103C39.2472 30.1129 38.8369 30.2829 38.4089 30.2829C38.1971 30.2829 37.9873 30.2411 37.7915 30.16C37.5958 30.079 37.4179 29.9601 37.2681 29.8103C37.1182 29.6605 36.9994 29.4826 36.9183 29.2869C36.8372 29.0911 36.7955 28.8813 36.7955 28.6694C36.7955 28.4575 36.8372 28.2477 36.9183 28.052C36.9994 27.8562 37.1182 27.6784 37.2681 27.5285C37.4179 27.3787 37.5958 27.2599 37.7915 27.1788C37.9873 27.0977 38.1971 27.056 38.4089 27.056ZM38.4089 25.084C37.6998 25.084 37.0066 25.2943 36.417 25.6882C35.8274 26.0822 35.3678 26.6422 35.0964 27.2973C34.8251 27.9525 34.7541 28.6734 34.8924 29.3689C35.0308 30.0644 35.3722 30.7033 35.8737 31.2047C36.3751 31.7061 37.014 32.0476 37.7095 32.186C38.405 32.3243 39.1259 32.2533 39.781 31.9819C40.4362 31.7106 40.9962 31.251 41.3901 30.6614C41.7841 30.0718 41.9944 29.3785 41.9944 28.6694C41.9944 27.7185 41.6166 26.8065 40.9442 26.1341C40.2718 25.4617 39.3599 25.084 38.4089 25.084Z" fill="#C4C4C4"/>
<path d="M20.8852 7.26884L14.1849 9.80105V4.75903L20.8852 7.26884Z" fill="#65676E"/>
<path d="M15.4174 5.90186H14.1849V12.9965H15.4174V5.90186Z" fill="#65676E"/>
<path d="M23.3726 25.0391C23.0576 25.0391 22.7555 24.914 22.5327 24.6912C22.31 24.4685 22.1849 24.1664 22.1849 23.8514V17.196C22.1849 16.881 22.31 16.5789 22.5327 16.3562C22.7555 16.1334 23.0576 16.0083 23.3726 16.0083H30.0504C30.3654 16.0083 30.6675 16.1334 30.8902 16.3562C31.113 16.5789 31.2381 16.881 31.2381 17.196C31.2381 17.511 31.113 17.8131 30.8902 18.0358C30.6675 18.2585 30.3654 18.3837 30.0504 18.3837H24.5602V23.8514C24.5602 24.1664 24.4351 24.4685 24.2124 24.6912C23.9896 24.914 23.6876 25.0391 23.3726 25.0391Z" fill="#65676E"/>
<path d="M24.5154 39.5825C24.2573 39.5825 24.0062 39.4984 23.8002 39.343C23.5941 39.1875 23.4443 38.9692 23.3734 38.7211C23.3025 38.4729 23.3144 38.2084 23.4072 37.9676C23.5001 37.7268 23.6688 37.5227 23.888 37.3864C25.5521 36.3678 26.9119 34.9209 27.8255 33.1969C28.739 31.4729 29.1727 29.5351 29.0811 27.5862C28.9895 25.6373 28.376 23.7487 27.3047 22.118C26.2335 20.4873 24.7439 19.1744 22.9916 18.3164C22.7136 18.1742 22.5028 17.9282 22.4048 17.6318C22.3067 17.3353 22.3294 17.0122 22.4679 16.7323C22.6063 16.4524 22.8494 16.2384 23.1446 16.1364C23.4397 16.0344 23.7631 16.0528 24.0448 16.1875C26.1694 17.2406 27.9734 18.8429 29.2699 20.8284C30.5663 22.8138 31.3079 25.11 31.4176 27.4787C31.5273 29.8473 31.0013 32.2023 29.894 34.2991C28.7867 36.3959 27.1385 38.1582 25.1204 39.4032C24.9386 39.5164 24.7295 39.5784 24.5154 39.5825Z" fill="#65676E"/>
</g>
<defs>
<clipPath id="clip0_1019_233">
<rect width="35.944" height="40" fill="white" transform="translate(6.02802 4.75903)"/>
</clipPath>
</defs>
</svg>
