<svg width="41" height="41" viewBox="0 0 41 41" fill="none" xmlns="http://www.w3.org/2000/svg">
<path d="M33.0351 0.246094H8.32711C4.10433 0.246094 0.681091 3.66933 0.681091 7.89211V32.6001C0.681091 36.8229 4.10433 40.2461 8.32711 40.2461H33.0351C37.2579 40.2461 40.6811 36.8229 40.6811 32.6001V7.89211C40.6811 3.66933 37.2579 0.246094 33.0351 0.246094Z" fill="#C4C4C4"/>
<path d="M12.4609 5.05127H29.3322C32.2816 5.05127 34.6726 7.44777 34.6726 10.404V10.406C34.6726 13.3622 32.2816 15.7587 29.3322 15.7587H12.4609C9.51157 15.7587 7.12062 13.3623 7.12062 10.406V10.404C7.12062 7.44777 9.51157 5.05127 12.4609 5.05127Z" fill="#65676E"/>
<path d="M17.8281 10.3916V30.0866C17.8281 33.0359 15.4316 35.4269 12.4754 35.4269H12.4734C9.51712 35.4269 7.12062 33.0359 7.12062 30.0866V10.3916C7.12062 7.44222 9.51712 5.05127 12.4734 5.05127H12.4754C15.4316 5.05127 17.8281 7.44222 17.8281 10.3916Z" fill="#9B9D9F"/>
<path d="M12.4744 35.436C9.51757 35.436 7.12062 33.039 7.12062 30.0822C7.12062 27.1255 9.51757 24.7285 12.4744 24.7285C15.4312 24.7285 17.8281 27.1255 17.8281 30.0822C17.8281 33.039 15.4312 35.436 12.4744 35.436Z" fill="white"/>
<path d="M24.8556 28.1484C27.8124 28.1484 30.2094 25.7514 30.2094 22.7946C30.2094 19.8379 27.8124 17.4409 24.8556 17.4409C21.8988 17.4409 19.5019 19.8379 19.5019 22.7946C19.5019 25.7514 21.8988 28.1484 24.8556 28.1484Z" fill="#65676E"/>
</svg>
