<svg width="48" height="48" viewBox="0 0 48 48" fill="none" xmlns="http://www.w3.org/2000/svg">
<path d="M33.3159 2.0929H14.6841C12.0968 2.0929 10 4.06116 10 6.48981V41.6031C10 44.0317 12.0968 46 14.6841 46H33.3159C35.9032 46 38 44.0317 38 41.6031V6.48981C38 4.06116 35.9032 2.0929 33.3159 2.0929Z" fill="#C4C4C4"/>
<path d="M24 42C22.8971 42 22.0043 41.1073 22.0043 40.0043C22.0043 38.9014 22.8971 38.0087 24 38.0087C25.1029 38.0087 25.9957 38.9014 25.9957 40.0043C25.9957 41.1049 25.1029 42 24 42Z" fill="#65676E"/>
<rect x="24.0043" y="14" width="19.9957" height="12" rx="1.5" fill="#65676E"/>
<path d="M24 30.6924V24.1795C24 23.7929 24.3134 23.4795 24.7 23.4795H31.2129C31.8365 23.4795 32.1488 24.2335 31.7079 24.6745L25.195 31.1873C24.754 31.6283 24 31.316 24 30.6924Z" fill="#65676E"/>
</svg>
