<svg width="48" height="48" viewBox="0 0 48 48" fill="none" xmlns="http://www.w3.org/2000/svg">
<rect x="2" y="6.10278" width="44" height="21.8973" rx="3.5" fill="#C4C4C4"/>
<circle cx="9.69778" cy="17.0514" r="1.69778" fill="#65676E"/>
<circle cx="15.8515" cy="17.0514" r="1.69778" fill="#65676E"/>
<circle cx="22.0051" cy="17.0514" r="1.69778" fill="#65676E"/>
<circle cx="28.1588" cy="17.0514" r="1.69778" fill="#65676E"/>
<circle cx="34.3125" cy="17.0514" r="1.69778" fill="#65676E"/>
<rect x="38.7684" y="11.2263" width="1.23155" height="11.5473" rx="0.615775" fill="#65676E"/>
<path d="M23.9999 40C28.4182 40 31.9999 36.4183 31.9999 32C31.9999 27.5817 28.4182 24 23.9999 24C19.5817 24 15.9999 27.5817 15.9999 32C15.9999 36.4183 19.5817 40 23.9999 40Z" fill="#65676E"/>
<path fill-rule="evenodd" clip-rule="evenodd" d="M24 26.6C24.5523 26.6 25 27.0477 25 27.6V31.7819L27.6472 33.1055C28.1412 33.3525 28.3414 33.9532 28.0944 34.4472C27.8474 34.9412 27.2468 35.1414 26.7528 34.8944L23.5528 33.2944C23.214 33.125 23 32.7787 23 32.4V27.6C23 27.0477 23.4477 26.6 24 26.6Z" fill="white"/>
</svg>
