<svg xmlns="http://www.w3.org/2000/svg" width="48" height="48" fill="none" viewBox="0 0 48 48"><path fill="#C4C4C4" d="M33.3159 2.0929H14.6841C12.0968 2.0929 10 4.06116 10 6.48981V41.6031C10 44.0317 12.0968 46 14.6841 46H33.3159C35.9032 46 38 44.0317 38 41.6031V6.48981C38 4.06116 35.9032 2.0929 33.3159 2.0929Z"/><path fill="#65676E" d="M24 42C22.8971 42 22.0043 41.1073 22.0043 40.0043C22.0043 38.9014 22.8971 38.0087 24 38.0087C25.1029 38.0087 25.9957 38.9014 25.9957 40.0043C25.9957 41.1049 25.1029 42 24 42Z"/><rect width="24" height="12" x="18" y="14" fill="#65676E" rx="1.5"/><path fill="#65676E" d="M18 30.6924V24.1795C18 23.7929 18.3134 23.4795 18.7 23.4795H25.2129C25.8365 23.4795 26.1488 24.2335 25.7079 24.6745L19.195 31.1873C18.754 31.6283 18 31.316 18 30.6924Z"/><circle cx="22.777" cy="20" r="1.278" fill="#fff"/><circle cx="27.593" cy="20" r="1.278" fill="#fff"/><circle cx="32.407" cy="20" r="1.278" fill="#fff"/><circle cx="37.223" cy="20" r="1.278" fill="#fff"/></svg>