<svg width="48" height="48" viewBox="0 0 48 48" fill="none" xmlns="http://www.w3.org/2000/svg">
<path d="M24.0114 4.02809C20.0566 4.02343 16.1893 5.19223 12.899 7.38652C9.60871 9.58081 7.04342 12.702 5.52781 16.3549C4.0122 20.0078 3.61443 24.0282 4.38484 27.9073C5.15525 31.7864 7.05921 35.3497 9.85571 38.1462C12.6522 40.9427 16.2155 42.8467 20.0946 43.6171C23.9737 44.3875 27.9942 43.9897 31.6471 42.4741C35.3 40.9585 38.4211 38.3932 40.6154 35.103C42.8097 31.8127 43.9785 27.9454 43.9739 23.9905C43.9676 18.6981 41.8624 13.6242 38.1201 9.88183C34.3778 6.1395 29.3039 4.03432 24.0114 4.02809ZM24.0114 33.9952C22.0327 33.9952 20.0984 33.4085 18.4531 32.3091C16.8078 31.2098 15.5255 29.6473 14.7683 27.8192C14.011 25.991 13.8129 23.9794 14.1989 22.0387C14.585 20.0979 15.5378 18.3153 16.937 16.9161C18.3362 15.5169 20.1189 14.564 22.0596 14.178C24.0003 13.792 26.012 13.9901 27.8401 14.7473C29.6682 15.5046 31.2307 16.7869 32.3301 18.4322C33.4294 20.0774 34.0162 22.0117 34.0162 23.9905C34.0162 26.6439 32.9621 29.1887 31.0859 31.0649C29.2096 32.9412 26.6649 33.9952 24.0114 33.9952Z" fill="#C4C4C4"/>
<path d="M6.1936 14.9745L15.0919 19.4943C16.0429 17.5824 17.5873 16.0298 19.494 15.0687L15.0449 6.14679C11.2293 8.07127 8.12823 11.1641 6.1936 14.9745Z" fill="#65676E"/>
<path d="M15.0898 41.8573L19.5625 32.9589C17.6298 31.9984 16.0604 30.4374 15.0898 28.5098L6.14435 32.9589C8.09123 36.8102 11.2283 39.9307 15.0898 41.8573Z" fill="#65676E"/>
<path d="M41.8554 32.9589L32.9335 28.5098C31.9669 30.4184 30.4165 31.9687 28.5079 32.9354L33.0277 41.8102C36.8381 39.8756 39.9309 36.7745 41.8554 32.9589Z" fill="#65676E"/>
<path d="M32.9806 6.14624L28.5549 15.0917C30.4684 16.0547 32.0144 17.6172 32.957 19.5408L41.8554 15.0446C39.935 11.1983 36.8217 8.07674 32.9806 6.14624Z" fill="#65676E"/>
</svg>
