<svg width="48" height="48" viewBox="0 0 48 48" fill="none" xmlns="http://www.w3.org/2000/svg">
<path d="M30.2368 31.286C30.2368 30.5716 30.8145 29.9939 31.5289 29.9939H33.3068C37.1714 30.0057 40.3004 33.1417 40.3004 37.0064C40.2886 40.864 37.1644 43.9882 33.3068 44H31.5289C30.8145 44 30.2368 43.4223 30.2368 42.7079V31.286Z" fill="#65676E"/>
<path d="M22.2292 31.286C22.2292 30.5716 21.6515 29.9939 20.937 29.9939H19.1592C15.2945 30.0057 12.1655 33.1417 12.1655 37.0064C12.1773 40.864 15.3016 43.9882 19.1592 44H20.937C21.6515 44 22.2292 43.4223 22.2292 42.7079V31.286Z" fill="#C4C4C4"/>
<path d="M33.9906 11.4865H31.7387C30.3617 6.15047 24.9196 2.94132 19.5836 4.31836C14.2476 5.69539 11.0408 11.1399 12.4178 16.4735C13.5567 20.8805 17.5322 23.9599 22.0853 23.9576H33.9906C37.4355 23.9576 40.2273 21.1658 40.2273 17.7209C40.2273 14.2759 37.4355 11.4865 33.9906 11.4865Z" fill="#C4C4C4"/>
<path d="M15.1106 38.0769H9.06956C6.27305 38.0769 4 35.8769 4 33.1724V17.7774C4 15.0729 6.27541 12.8729 9.06956 12.8729H15.1106V14.9951H9.06956C7.44494 14.9951 6.12214 16.2424 6.12214 17.7774V33.1724C6.12214 34.7074 7.44494 35.9547 9.06956 35.9547H15.1106V38.0769Z" fill="#C4C4C4"/>
<path d="M31.0879 34.0166H27.1808C26.6173 34.0166 26.1599 33.5591 26.1599 32.9956C26.1599 32.432 26.6173 31.9746 27.1808 31.9746H31.0879V34.0166Z" fill="#65676E"/>
<path d="M39.3101 38.0439H43.2172C43.7807 38.0439 44.2381 37.5865 44.2381 37.0229C44.2381 36.4594 43.7807 36.002 43.2172 36.002H39.3101V38.0439Z" fill="#65676E"/>
<path d="M31.0879 41.984H27.1808C26.6173 41.984 26.1599 41.5265 26.1599 40.963C26.1599 40.3995 26.6173 39.942 27.1808 39.942H31.0879V41.984Z" fill="#65676E"/>
</svg>
