<svg xmlns="http://www.w3.org/2000/svg" width="48" height="49" fill="none" viewBox="0 0 48 49"><g clip-path="url(#clip0_1019_232)"><path fill="#C4C4C4" d="M29.6321 36.6755C30.5651 35.7463 31.8274 35.2233 33.1443 35.2205H37.0578C38.3666 35.2271 39.6198 35.7499 40.5452 36.6753C41.4706 37.6007 41.9934 38.8539 42 40.1626V42.8971C42 43.1574 41.9487 43.4151 41.8491 43.6555C41.7495 43.896 41.6036 44.1145 41.4195 44.2985C41.2355 44.4825 41.017 44.6285 40.7766 44.7281C40.5361 44.8277 40.2784 44.879 40.0181 44.879H30.184C29.6583 44.879 29.1543 44.6702 28.7826 44.2985C28.4109 43.9268 28.2021 43.4227 28.2021 42.8971V40.1626C28.1994 39.5159 28.3243 38.875 28.5697 38.2766C28.8151 37.6782 29.1761 37.1342 29.6321 36.6755Z"/><path fill="#C4C4C4" d="M29.8829 27.1173C29.8829 26.0852 30.1889 25.0764 30.7623 24.2183C31.3357 23.3601 32.1507 22.6913 33.1042 22.2964C34.0576 21.9014 35.1068 21.7981 36.119 21.9994C37.1313 22.2008 38.061 22.6978 38.7908 23.4275C39.5206 24.1573 40.0175 25.0871 40.2189 26.0993C40.4202 27.1115 40.3169 28.1607 39.922 29.1142C39.527 30.0677 38.8582 30.8826 38.0001 31.456C37.1419 32.0294 36.1331 32.3354 35.101 32.3354C33.7171 32.3354 32.3899 31.7856 31.4113 30.8071C30.4327 29.8285 29.8829 28.5012 29.8829 27.1173Z"/><path fill="#65676E" d="M7.45505 36.6755C7.91544 36.2131 8.46284 35.8465 9.06565 35.5968C9.66846 35.347 10.3148 35.2191 10.9672 35.2205H14.8557C16.1688 35.2205 17.4285 35.7403 18.3593 36.6665C19.2901 37.5926 19.8164 38.8496 19.823 40.1626V42.8971C19.823 43.1595 19.7709 43.4193 19.6698 43.6614C19.5686 43.9035 19.4204 44.1231 19.2337 44.3075C19.047 44.4918 18.8255 44.6373 18.5822 44.7354C18.3388 44.8335 18.0784 44.8823 17.816 44.879H7.98187C7.45624 44.879 6.95217 44.6702 6.58049 44.2985C6.20882 43.9268 6 43.4227 6 42.8971V40.1626C6.00399 38.8534 6.5273 37.5993 7.45505 36.6755Z"/><path fill="#65676E" d="M7.70592 27.1172C7.70593 26.0841 8.01263 25.0743 8.58712 24.2156C9.16161 23.357 9.97806 22.6882 10.933 22.294C11.888 21.8998 12.9384 21.7979 13.9513 22.0013C14.9642 22.2047 15.8939 22.7041 16.6227 23.4364C17.3514 24.1687 17.8464 25.1008 18.0449 26.1147C18.2434 27.1286 18.1365 28.1785 17.7377 29.1316C17.3389 30.0846 16.6662 30.8978 15.8048 31.4682C14.9434 32.0385 13.9321 32.3403 12.899 32.3354C11.5194 32.3287 10.1986 31.776 9.22538 30.7982C8.25222 29.8203 7.7059 28.4968 7.70592 27.1172Z"/><path fill="#65676E" d="M35.3519 18.713C35.0059 18.713 34.6741 18.5756 34.4295 18.3309C34.1848 18.0863 34.0474 17.7545 34.0474 17.4085V10.0078C34.0474 9.28257 33.7593 8.58704 33.2465 8.07422C32.7336 7.5614 32.0381 7.27331 31.3129 7.27331H17.1387C16.7774 7.26999 16.4192 7.33828 16.0845 7.47421C15.7498 7.61015 15.4454 7.81105 15.1889 8.0653C14.9323 8.31955 14.7286 8.62212 14.5896 8.95553C14.4506 9.28894 14.3791 9.64659 14.3791 10.0078V16.405C14.3791 16.751 14.2417 17.0828 13.997 17.3275C13.7524 17.5721 13.4205 17.7095 13.0746 17.7095C12.7286 17.7095 12.3967 17.5721 12.1521 17.3275C11.9075 17.0828 11.77 16.751 11.77 16.405V10.0078C11.77 9.30279 11.9089 8.60467 12.1787 7.95332C12.4485 7.30196 12.8439 6.71012 13.3425 6.2116C13.841 5.71307 14.4328 5.31763 15.0842 5.04783C15.7355 4.77803 16.4336 4.63916 17.1387 4.63916H31.3129C32.0167 4.63915 32.7136 4.7782 33.3636 5.0483C34.0135 5.31841 34.6037 5.71426 35.1002 6.21311C35.5968 6.71197 35.9899 7.304 36.2569 7.95521C36.524 8.60642 36.6597 9.30397 36.6564 10.0078V17.4085C36.6564 17.7545 36.519 18.0863 36.2743 18.3309C36.0297 18.5756 35.6979 18.713 35.3519 18.713Z"/><path fill="#65676E" d="M35.076 19.2649C34.9039 19.2679 34.733 19.236 34.5735 19.1714C34.414 19.1067 34.2692 19.0105 34.1478 18.8886L29.5317 14.2726C29.2896 14.0243 29.1541 13.6912 29.1541 13.3444C29.1541 12.9976 29.2896 12.6645 29.5317 12.4161C29.6552 12.2925 29.8019 12.1944 29.9633 12.1275C30.1247 12.0606 30.2977 12.0261 30.4725 12.0261C30.6472 12.0261 30.8203 12.0606 30.9817 12.1275C31.1431 12.1944 31.2898 12.2925 31.4133 12.4161L35.076 16.1039L38.7638 12.4161C39.01 12.17 39.3439 12.0317 39.692 12.0317C40.0402 12.0317 40.3741 12.17 40.6202 12.4161C40.8664 12.6623 41.0047 12.9962 41.0047 13.3444C41.0047 13.6925 40.8664 14.0264 40.6202 14.2726L36.0042 18.8886C35.8828 19.0105 35.7379 19.1067 35.5784 19.1714C35.419 19.236 35.248 19.2679 35.076 19.2649Z"/></g><defs><clipPath id="clip0_1019_232"><rect width="36" height="40.24" fill="#fff" transform="translate(6 4.63916)"/></clipPath></defs></svg>