<svg xmlns="http://www.w3.org/2000/svg" width="48" height="48" fill="none" viewBox="0 0 48 48"><path fill="#C4C4C4" d="M33.3159 2H14.6841C12.0968 2 9.99997 3.9766 9.99997 6.41552V41.6774C9.99997 44.1163 12.0968 46.0929 14.6841 46.0929H33.3159C35.9031 46.0929 38 44.1163 38 41.6774V6.41552C38 3.9766 35.9031 2 33.3159 2Z"/><path fill="#65676E" d="M24 42C22.8971 42 22.0044 41.1073 22.0044 40.0043C22.0044 38.9014 22.8971 38.0087 24 38.0087C25.103 38.0087 25.9957 38.9014 25.9957 40.0043C25.9957 41.1049 25.103 42 24 42Z"/><path fill="#65676E" fill-rule="evenodd" d="M27.1604 12.2563C26.7334 12.2563 26.3858 12.604 26.3858 13.0309C26.3858 13.4579 26.7334 13.8055 27.1604 13.8055H29.2159C30.2123 13.8055 30.9714 14.5667 30.9714 15.561V17.6165C30.9714 18.0435 31.3164 18.3884 31.7433 18.3884C32.1702 18.3884 32.5178 18.0408 32.5178 17.6138V15.5583C32.5178 13.7105 31.0667 12.2563 29.2159 12.2563H27.1604ZM18.785 12.2564C16.9342 12.2564 15.483 13.7106 15.483 15.5583V17.6139C15.483 18.0408 15.8307 18.3884 16.2576 18.3884C16.6845 18.3884 17.0295 18.0435 17.0295 17.6165V15.561C17.0295 14.5667 17.7885 13.8055 18.785 13.8055H20.8405C21.2675 13.8055 21.615 13.4579 21.615 13.0309C21.615 12.604 21.2675 12.2564 20.8405 12.2564H18.785ZM16.2567 24.1679C15.8298 24.1679 15.4822 24.5156 15.4822 24.9425V26.998C15.4822 28.8458 16.9333 30.3 18.7841 30.3H20.8397C21.2666 30.3 21.6142 29.9523 21.6142 29.5254C21.6142 29.0985 21.2666 28.7508 20.8397 28.7508H18.7841C17.7877 28.7508 17.0286 27.9896 17.0286 26.9953V24.9398C17.0286 24.5129 16.6837 24.1679 16.2567 24.1679ZM31.7433 24.1679C31.3163 24.1679 30.9714 24.5129 30.9714 24.9398V26.9953C30.9714 27.9896 30.2123 28.7508 29.2159 28.7508H27.1604C26.7334 28.7508 26.3858 29.0984 26.3858 29.5254C26.3858 29.9524 26.7334 30.3 27.1604 30.3H29.2159C31.0667 30.3 32.5178 28.8458 32.5178 26.998V24.9425C32.5178 24.5156 32.1702 24.1679 31.7433 24.1679ZM21.8197 19.0895C21.8197 17.8824 22.798 16.9041 24.0052 16.9041C25.2123 16.9041 26.1906 17.8824 26.1906 19.0895C26.1906 20.2967 25.2123 21.275 24.0052 21.275C22.798 21.275 21.8197 20.295 21.8197 19.0895ZM20.2642 22.7912C20.6739 22.3814 21.2288 22.1509 21.8077 22.1509H26.1906C26.7694 22.1509 27.3243 22.3814 27.7341 22.7912C28.1439 23.201 28.3744 23.7559 28.3744 24.3347V24.7735C28.3744 25.255 27.9834 25.646 27.5019 25.646H20.5032C20.0183 25.646 19.6256 25.2533 19.6256 24.7684V24.3364C19.6256 23.7559 19.8561 23.201 20.2642 22.7912Z" clip-rule="evenodd"/></svg>