<svg xmlns="http://www.w3.org/2000/svg" width="48" height="48" fill="none" viewBox="0 0 48 48"><rect width="44" height="21.897" x="2" y="6.103" fill="#C4C4C4" rx="3.5"/><circle cx="9.698" cy="17.051" r="1.698" fill="#65676E"/><circle cx="15.851" cy="17.051" r="1.698" fill="#65676E"/><circle cx="22.005" cy="17.051" r="1.698" fill="#65676E"/><circle cx="28.159" cy="17.051" r="1.698" fill="#65676E"/><circle cx="34.313" cy="17.051" r="1.698" fill="#65676E"/><rect width="1.232" height="11.547" x="38.768" y="11.226" fill="#65676E" rx=".616"/><path fill="#65676E" d="M23.9999 40C28.4182 40 31.9999 36.4183 31.9999 32C31.9999 27.5817 28.4182 24 23.9999 24C19.5817 24 15.9999 27.5817 15.9999 32C15.9999 36.4183 19.5817 40 23.9999 40Z"/><path fill="#fff" fill-rule="evenodd" d="M24 26.6C24.5523 26.6 25 27.0477 25 27.6V31.7819L27.6472 33.1055C28.1412 33.3525 28.3414 33.9532 28.0944 34.4472C27.8474 34.9412 27.2468 35.1414 26.7528 34.8944L23.5528 33.2944C23.214 33.125 23 32.7787 23 32.4V27.6C23 27.0477 23.4477 26.6 24 26.6Z" clip-rule="evenodd"/></svg>