<svg xmlns="http://www.w3.org/2000/svg" width="48" height="48" fill="none" viewBox="0 0 48 48"><rect width="44" height="22" x="2" y="6" fill="#C4C4C4" rx="3.5"/><circle cx="9.698" cy="17" r="1.698" fill="#65676E"/><circle cx="15.851" cy="17" r="1.698" fill="#65676E"/><circle cx="22.005" cy="17" r="1.698" fill="#65676E"/><circle cx="28.159" cy="17" r="1.698" fill="#65676E"/><circle cx="34.313" cy="17" r="1.698" fill="#65676E"/><path fill="#65676E" d="M22.4887 24.7995L15.0025 37.2971C14.8482 37.5644 14.7665 37.8674 14.7656 38.1761C14.7648 38.4847 14.8447 38.7882 14.9976 39.0564C15.1504 39.3245 15.3708 39.548 15.6369 39.7045C15.9029 39.8611 16.2052 39.9452 16.5139 39.9486H31.4862C31.7948 39.9452 32.0972 39.8611 32.3632 39.7045C32.6293 39.548 32.8497 39.3245 33.0025 39.0564C33.1553 38.7882 33.2353 38.4847 33.2345 38.1761C33.2336 37.8674 33.1519 37.5644 32.9976 37.2971L25.5114 24.7995C25.3539 24.5398 25.132 24.325 24.8673 24.176C24.6025 24.0269 24.3039 23.9486 24 23.9486C23.6962 23.9486 23.3976 24.0269 23.1328 24.176C22.8681 24.325 22.6462 24.5398 22.4887 24.7995Z"/><path fill="#fff" fill-rule="evenodd" d="M24 28.3425C24.5523 28.3425 25 28.7902 25 29.3425V32.8779C25 33.4302 24.5523 33.8779 24 33.8779C23.4477 33.8779 23 33.4302 23 32.8779V29.3425C23 28.7902 23.4477 28.3425 24 28.3425Z" clip-rule="evenodd"/><path fill="#fff" fill-rule="evenodd" d="M23 36.4132C23 35.8609 23.4477 35.4132 24 35.4132H24.01C24.5623 35.4132 25.01 35.8609 25.01 36.4132C25.01 36.9655 24.5623 37.4132 24.01 37.4132H24C23.4477 37.4132 23 36.9655 23 36.4132Z" clip-rule="evenodd"/><rect width="1.232" height="11.547" x="38.768" y="11.175" fill="#65676E" rx=".616"/></svg>