<svg xmlns="http://www.w3.org/2000/svg" width="48" height="48" fill="none" viewBox="0 0 48 48"><path fill="#65676E" d="M3.9588 17.7317C3.9588 16.5953 5.15753 15.8584 6.17155 16.3715L20.8764 23.8124C22.06 24.4113 22.8061 25.625 22.8061 26.9514V43.3428C22.8061 44.481 21.6041 45.2178 20.5899 44.7013L5.88052 37.2117C4.70133 36.6113 3.9588 35.3999 3.9588 34.0767V17.7317Z"/><path fill="#9B9D9F" d="M44 17.7317C44 16.5953 42.8013 15.8584 41.7872 16.3715L27.0824 23.8124C25.8988 24.4113 25.1527 25.625 25.1527 26.9514V43.3428C25.1527 44.481 26.3547 45.2178 27.3689 44.7013L42.0783 37.2117C43.2575 36.6113 44 35.3999 44 34.0767V17.7317Z"/><path fill="#C4C4C4" d="M22.1515 3.43469C23.3439 2.86165 24.6633 2.86166 25.8557 3.43469L42.1127 11.2473C42.9919 11.6698 43 13.2248 42.1253 13.6616L25.5356 21.9466C24.5519 22.4379 23.4553 22.4379 22.4717 21.9466L5.88194 13.6616C5.00721 13.2248 5.01529 11.6698 5.8945 11.2473L22.1515 3.43469Z"/></svg>