<svg xmlns="http://www.w3.org/2000/svg" width="48" height="49" fill="none" viewBox="0 0 48 49"><g clip-path="url(#clip0_1019_235)"><path fill="#9B9D9F" d="M8.82923 16.349C8.82923 14.7929 9.29068 13.2717 10.1552 11.9778C11.0198 10.6839 12.2486 9.6754 13.6863 9.07988C15.124 8.48437 16.706 8.32855 18.2323 8.63214C19.7586 8.93573 21.1605 9.6851 22.2609 10.7855C23.3613 11.8858 24.1106 13.2878 24.4142 14.8141C24.7178 16.3403 24.562 17.9223 23.9665 19.36C23.3709 20.7977 22.3625 22.0266 21.0686 22.8911C19.7747 23.7557 18.2535 24.2171 16.6973 24.2171C15.6632 24.2202 14.6387 24.0188 13.6827 23.6245C12.7266 23.2302 11.8581 22.6508 11.1268 21.9196C10.3956 21.1883 9.81614 20.3197 9.42184 19.3637C9.02753 18.4077 8.82612 17.3832 8.82923 16.349Z"/><path fill="#C4C4C4" d="M6.49705 29.8943C7.28313 29.1011 8.21892 28.4719 9.25011 28.0432C10.2813 27.6146 11.3874 27.395 12.5041 27.3972H20.8669C21.9868 27.3971 23.0958 27.6175 24.1306 28.0459C25.1653 28.4744 26.1055 29.1025 26.8975 29.8943C28.488 31.4996 29.3847 33.6651 29.3946 35.9249V37.621C29.3946 38.527 29.0347 39.3958 28.3941 40.0364C27.7535 40.6769 26.8847 41.0368 25.9788 41.0368H7.41575C6.50983 41.0368 5.64101 40.6769 5.00043 40.0364C4.35984 39.3958 3.99997 38.527 3.99997 37.621V35.9249C3.9998 34.805 4.22024 33.696 4.64868 32.6612C5.07713 31.6265 5.70522 30.6863 6.49705 29.8943Z"/><path fill="#65676E" d="M42.6808 19.2937C41.8291 18.4479 40.6774 17.9731 39.477 17.9731C38.2767 17.9731 37.125 18.4479 36.2733 19.2937L35.4017 20.1653L34.6243 19.3644C32.881 17.6212 30.0542 17.5034 28.2638 19.1759C27.8201 19.5897 27.4642 20.0886 27.2172 20.6428C26.9703 21.197 26.8373 21.7952 26.8263 22.4019C26.8153 23.0085 26.9265 23.6111 27.1532 24.1739C27.38 24.7367 27.7176 25.2481 28.146 25.6777L29.0177 26.5493L35.0718 32.6035C35.1639 32.6913 35.2862 32.7404 35.4134 32.7404C35.5407 32.7404 35.663 32.6913 35.755 32.6035L41.8092 26.5493L42.6808 25.6777C43.1018 25.2595 43.4358 24.7622 43.6638 24.2144C43.8918 23.6666 44.0091 23.0791 44.0091 22.4857C44.0091 21.8924 43.8918 21.3049 43.6638 20.757C43.4358 20.2092 43.1018 19.7119 42.6808 19.2937Z"/></g><defs><clipPath id="clip0_1019_235"><rect width="40" height="32.556" fill="#fff" transform="translate(4 8.48096)"/></clipPath></defs></svg>