<svg width="48" height="49" viewBox="0 0 48 49" fill="none" xmlns="http://www.w3.org/2000/svg">
<path d="M17.9167 7.01611H7.96576C5.77553 7.01611 4 8.79165 4 10.9819V20.9352C4 23.1254 5.77553 24.901 7.96576 24.901H17.9167C20.1069 24.901 21.8824 23.1254 21.8824 20.9352V10.9819C21.8824 8.79165 20.1069 7.01611 17.9167 7.01611Z" fill="#C4C4C4"/>
<path d="M16.5542 18.6945H9.40118L12.9777 13.1716L16.5542 18.6945Z" fill="white"/>
<path d="M28.9876 15.9451H19.0367C16.8465 15.9451 15.071 17.7206 15.071 19.9108V29.8642C15.071 32.0544 16.8465 33.8299 19.0367 33.8299H28.9876C31.1779 33.8299 32.9534 32.0544 32.9534 29.8642V19.9108C32.9534 17.7206 31.1779 15.9451 28.9876 15.9451Z" fill="#9B9D9F"/>
<path d="M27.6008 27.5746H20.4235L24.0244 22.0518L27.6008 27.5746Z" fill="white"/>
<path d="M40.1793 24.874H30.2284C28.0382 24.874 26.2627 26.6496 26.2627 28.8398V38.7931C26.2627 40.9834 28.0382 42.7589 30.2284 42.7589H40.1793C42.3696 42.7589 44.1451 40.9834 44.1451 38.7931V28.8398C44.1451 26.6496 42.3696 24.874 40.1793 24.874Z" fill="#65676E"/>
<path d="M38.7682 36.5523H31.6152L35.1917 31.0537L38.7682 36.5523Z" fill="white"/>
</svg>
