<svg width="48" height="48" viewBox="0 0 48 48" fill="none" xmlns="http://www.w3.org/2000/svg">
<path fill-rule="evenodd" clip-rule="evenodd" d="M34.0544 15.0216L24.8001 11.9395C24.5415 11.8522 24.2704 11.8101 24.0008 11.8117C23.7312 11.8101 23.4601 11.8522 23.1999 11.9395L13.9472 15.0216C12.8113 15.4003 12.0446 16.463 12.0446 17.6612V27.4281L12.0571 27.4639C12.2394 30.0848 19.0472 36.5203 23.9525 38.2686H24.0491C28.9543 36.5203 35.7637 30.0848 35.9445 27.4639L35.9554 27.4281V17.6612C35.9554 16.463 35.1903 15.4003 34.0544 15.0216Z" fill="#65676E"/>
<path d="M38.9014 40.6843L37.5959 41.9897C36.9911 42.5946 35.9554 42.1661 35.9554 41.3101L35.9554 36.952C35.9554 36.4208 36.3862 35.9911 36.9163 35.9911L41.2744 35.9911C42.1304 35.9911 42.5589 37.0268 41.954 37.6317L40.8054 38.7803L43.6058 41.7018C44.1314 42.2275 44.1314 43.0801 43.6058 43.6058C43.0801 44.1314 42.2275 44.1314 41.7018 43.6058L38.9014 40.6843Z" fill="#9B9D9F"/>
<path d="M38.9014 7.31583L37.596 6.01036C36.9911 5.40548 35.9554 5.83403 35.9554 6.69002L35.9554 11.0481C35.9554 11.5793 36.3862 12.009 36.9163 12.009L41.2744 12.009C42.1304 12.009 42.5589 10.9733 41.954 10.3684L40.8054 9.21977L43.6058 6.2983C44.1314 5.77265 44.1314 4.92001 43.6058 4.39436C43.0801 3.86871 42.2275 3.86871 41.7018 4.39436L38.9014 7.31583Z" fill="#C4C4C4"/>
<path d="M9.09864 40.6842L10.4041 41.9897C11.009 42.5946 12.0447 42.1661 12.0447 41.3101L12.0447 36.9519C12.0447 36.4207 11.6139 35.991 11.0838 35.991L6.72565 35.991C5.86965 35.991 5.44109 37.0267 6.04598 37.6316L7.19467 38.7803L4.39424 41.7018C3.86859 42.2274 3.86859 43.0801 4.39424 43.6058C4.9199 44.1314 5.77255 44.1314 6.29821 43.6058L9.09864 40.6842Z" fill="#C4C4C4"/>
<path d="M9.09864 7.31576L10.4041 6.01027C11.009 5.40538 12.0447 5.83394 12.0447 6.68994L12.0447 11.0481C12.0447 11.5793 11.6139 12.009 11.0838 12.009L6.72565 12.009C5.86965 12.009 5.44109 10.9733 6.04598 10.3684L7.19467 9.21972L4.39424 6.29821C3.86859 5.77255 3.86859 4.9199 4.39424 4.39424C4.9199 3.86859 5.77255 3.86859 6.29821 4.39424L9.09864 7.31576Z" fill="#9B9D9F"/>
</svg>
