<svg width="48" height="48" viewBox="0 0 48 48" fill="none" xmlns="http://www.w3.org/2000/svg">
<path d="M33 38.5302L26.8835 32.1493C25.7761 31.0419 25.7761 29.2457 26.8835 28.1383C27.9908 27.031 29.7871 27.031 30.8944 28.1383L37.0109 34.5193" fill="#C4C4C4"/>
<path d="M14.8296 20.0954L4.83051 10.0963C3.72316 8.98896 3.72316 7.19275 4.83051 6.0854C5.93786 4.97805 7.73407 4.97805 8.84142 6.0854L18.8405 16.0845C19.9478 17.1918 19.9478 18.988 18.8405 20.0954C17.7331 21.2027 15.9369 21.2027 14.8296 20.0954Z" fill="#C4C4C4"/>
<path d="M36.9225 34.1641L39.544 31.5427C40.8182 30.2684 43 31.1712 43 32.9745V42.1554C43 43.2745 42.0925 44.1796 40.9757 44.1796H31.7949C29.9916 44.1796 29.0888 41.9979 30.3631 40.7236L32.9116 38.175" fill="#C4C4C4"/>
<path d="M32.9492 10.0798L30.3254 7.45606C29.0511 6.18179 29.9539 4 31.7572 4H40.9381C42.0572 4 42.9624 4.90751 42.9624 6.02426V15.2052C42.9624 17.0084 40.7806 17.9112 39.5063 16.637L36.9601 14.0908" fill="#65676E"/>
<path d="M32.9492 10.0798L26.8858 16.1432L4.83286 38.1962C3.72551 39.3035 3.72551 41.0997 4.83286 42.2071C5.94021 43.3144 7.73642 43.3144 8.84377 42.2071L36.9601 14.0907" fill="#65676E"/>
</svg>
