<svg width="48" height="48" viewBox="0 0 48 48" fill="none" xmlns="http://www.w3.org/2000/svg">
<path d="M8.08175 20.6191C7.92564 20.6191 8.02117 19.9411 8.14 19.2537C8.2565 18.5804 8.4359 17.9187 8.68055 17.2803L11.5697 9.74282C11.9355 8.75957 12.4924 8 13.3871 8H34.3195C35.2165 8 35.7711 8.75957 36.1392 9.74282L39.0284 17.2803C39.273 17.9187 39.4548 18.5804 39.5689 19.2537C39.6877 19.9411 39.7833 20.6191 39.6272 20.6191" fill="#C4C4C4"/>
<path d="M8.08157 34.4987C7.92546 34.4987 8.02099 33.8207 8.13981 33.1334C8.25631 32.46 8.43572 31.7983 8.68037 31.1599L11.5695 23.6225C11.9353 22.6392 12.4922 21.8796 13.3892 21.8796H34.3217C35.2187 21.8796 35.7732 22.6392 36.1414 23.6225L39.0305 31.1599C39.2752 31.7983 39.4569 32.46 39.5711 33.1334C39.6899 33.8207 39.7854 34.4987 39.6293 34.4987" fill="#C4C4C4"/>
<path d="M10.3417 32.2037H37.3809C38.6647 32.2037 39.7062 33.2452 39.7062 34.529V39.7901C39.7062 41.0739 38.6647 42.1154 37.3809 42.1154H10.3417C9.05785 42.1154 8.01636 41.0739 8.01636 39.7901V34.529C8.01636 33.2452 9.05785 32.2037 10.3417 32.2037Z" fill="#9B9D9F"/>
<path d="M34.9111 38.2476C35.5558 38.2476 36.0785 37.725 36.0785 37.0803C36.0785 36.4356 35.5558 35.913 34.9111 35.913C34.2665 35.913 33.7438 36.4356 33.7438 37.0803C33.7438 37.725 34.2665 38.2476 34.9111 38.2476Z" fill="#65676E"/>
<path d="M10.3417 18.3241H37.3809C38.6647 18.3241 39.7062 19.3656 39.7062 20.6494V25.9105C39.7062 27.1943 38.6647 28.2358 37.3809 28.2358H10.3417C9.05785 28.2358 8.01636 27.1943 8.01636 25.9105V20.6494C8.01636 19.3656 9.05785 18.3241 10.3417 18.3241Z" fill="#9B9D9F"/>
<path d="M34.9111 24.368C35.5558 24.368 36.0785 23.8453 36.0785 23.2006C36.0785 22.5559 35.5558 22.0333 34.9111 22.0333C34.2665 22.0333 33.7438 22.5559 33.7438 23.2006C33.7438 23.8453 34.2665 24.368 34.9111 24.368Z" fill="#65676E"/>
<path d="M22.0824 14.6448L23.9987 16.0382L25.917 14.6448L24.0007 13.3827L22.0824 14.6448ZM21.2525 11.5744C20.7141 12.6493 21.0537 13.8979 22.0824 14.6448L22.9026 12.6609L21.2525 11.5744H23.3503L24.0007 10.0054H22.0399L21.2525 11.5744ZM26.7469 11.5744L25.9595 10.0054H24.0007L24.6491 11.5744H26.7469L25.0968 12.6609L25.917 14.6448C26.9997 13.8593 27.2583 12.5914 26.7469 11.5744Z" fill="#65676E"/>
<path d="M36.1168 4.22328L32.085 7.15301C31.6755 7.44876 31.5061 7.97707 31.6603 8.45735L33.1997 13.197C33.3565 13.6773 33.8039 14.0034 34.3094 14.0034H39.2917C39.7973 14.0034 40.2447 13.6773 40.4015 13.197L41.9409 8.45735C42.0976 7.97707 41.9257 7.45129 41.5162 7.15301L37.4869 4.22328C37.0774 3.92753 36.5238 3.92753 36.1168 4.22328Z" fill="#65676E"/>
</svg>
