<svg width="86" height="26" viewBox="0 0 86 26" fill="none" xmlns="http://www.w3.org/2000/svg">
<path d="M19.6259 0H11.3968L13.9404 7.91978H22.1695L15.5114 12.6407L18.055 20.6035C22.3417 17.4863 23.7404 12.7654 22.1695 7.91978L19.6259 0ZM0.624159 7.91978H8.85322L11.3968 0H3.16777L0.624159 7.91978C-0.946767 12.7654 0.452002 17.4863 4.73869 20.6035L7.2823 12.6407L0.624159 7.91978ZM4.73869 20.6035L11.3968 25.3158L18.055 20.6035L11.3968 15.8138L4.73869 20.6035ZM66.8483 7.722C64.8987 7.722 63.6634 8.60341 63.0781 10.0395H62.9318V3.52133H60.0094V20.5605H62.9963V13.1652C62.9963 11.3336 64.1369 10.2802 65.7379 10.2802C67.3046 10.2802 68.2299 11.2777 68.2299 12.9847V20.5605H71.2168V12.4902C71.2125 9.42892 69.4823 7.722 66.8483 7.722ZM79.2909 3.49124C75.2496 3.49124 72.8135 6.65141 72.8049 12.1462C72.8049 17.654 75.228 20.8571 79.2909 20.8571C83.3495 20.8657 85.7769 17.6626 85.7769 12.1462C85.7726 6.66001 83.3323 3.49124 79.2909 3.49124ZM75.8865 12.1462C75.8951 8.13906 77.2035 6.02798 79.2866 6.02798C80.7112 6.02798 81.7743 7.00827 82.308 8.89578L75.9382 13.5178C75.9038 13.0878 75.8865 12.6321 75.8865 12.1462ZM79.2909 18.286C77.819 18.286 76.7301 17.2455 76.2179 15.2247L82.6221 10.5769C82.6738 11.0628 82.6996 11.5873 82.6996 12.1462C82.6996 16.1835 81.3912 18.286 79.2909 18.286ZM46.564 15.2419C46.564 17.1724 45.1868 18.1269 43.8655 18.1269C42.428 18.1269 41.4725 17.1122 41.4725 15.5042V7.90258H38.4856V15.9642C38.4856 19.004 40.2201 20.7282 42.712 20.7282C44.6101 20.7282 45.9486 19.7307 46.5253 18.3118H46.6587V20.5648H49.5552V7.90258H46.5683V15.2419H46.564ZM31.7285 7.7134C29.0644 7.7134 27.0157 8.90008 26.3572 11.2089L29.1461 11.6045C29.4431 10.7403 30.2867 9.99646 31.7457 9.99646C33.1315 9.99646 33.889 10.7059 33.889 11.9485V11.9958C33.889 12.8514 32.9895 12.8944 30.7558 13.1351C28.2983 13.3974 25.944 14.1326 25.944 16.9832C25.944 19.4727 27.7689 20.7926 30.1834 20.7926C32.1718 20.7926 33.3597 19.8596 33.9063 18.7977H34.0052V20.5347H36.8759V12.0645C36.8802 8.7152 34.1473 7.7134 31.7285 7.7134ZM33.9019 15.9943C33.9019 17.4046 32.7614 18.5999 30.9667 18.5999C29.7229 18.5999 28.8276 18.0323 28.8276 16.9359C28.8276 15.7923 29.8262 15.3107 31.1647 15.1215C31.948 15.014 33.5146 14.8163 33.9019 14.5024V15.9943ZM55.925 4.73811H52.9381V7.90688H51.1262V10.2802H52.9381V17.2885C52.9209 19.6705 54.6554 20.8399 56.8977 20.7754C57.5691 20.7539 58.077 20.6508 58.417 20.5519V18.1871C58.1889 18.2172 57.6595 18.286 57.2765 18.2946C56.5276 18.3118 55.925 18.0323 55.925 16.8285V10.2802H58.4256V7.91118H55.925V4.73811Z" fill="white"/>
</svg>
