<?xml version="1.0" encoding="UTF-8"?>
<svg width="65px" height="24px" viewBox="0 0 65 24" version="1.1" xmlns="http://www.w3.org/2000/svg" xmlns:xlink="http://www.w3.org/1999/xlink">
    <!-- Generator: Sketch 55.2 (78181) - https://sketchapp.com -->
    <title>auth0 logo</title>
    <desc>Created with Sketch.</desc>
    <g id="Symbols" stroke="none" stroke-width="1" fill="none" fill-rule="evenodd">
        <g id="Footer" transform="translate(-1234.000000, -65.000000)" fill="#FFFFFF">
            <g id="footer">
                <g id="auth0-logo" transform="translate(1234.000000, 65.000000)">
                    <path d="M61.1571052,5.78767123 C60.031647,5.78767123 59.0797864,6.31214449 58.4043443,7.3041789 C57.7329426,8.29028783 57.3780847,9.66678898 57.3780847,11.2845809 C57.3780847,12.9023728 57.7329426,14.2788739 58.4043443,15.2648451 C59.0797864,16.2570173 60.031647,16.7813527 61.1571052,16.7813527 C62.2825634,16.7813527 63.2344241,16.2570173 63.9098662,15.2648451 C64.5811286,14.2788739 64.9359865,12.9023728 64.9359865,11.2845809 C64.9359865,9.66678898 64.5811286,8.29028783 63.9098662,7.3041789 C63.2344241,6.31214449 62.2825634,5.78767123 61.1571052,5.78767123 L61.1571052,5.78767123 L61.1571052,5.78767123 Z M61.1571052,15.4193208 C60.6190365,15.4193208 60.1939593,15.1182241 59.8572136,14.4986676 C59.4505272,13.7502666 59.2264944,12.6088552 59.2264944,11.2845809 C59.2264944,9.96030659 59.4505272,8.81875734 59.8572136,8.07049413 C60.1939593,7.4509377 60.6190365,7.1497032 61.1571052,7.1497032 C61.6950347,7.1497032 62.1202511,7.4509377 62.4569969,8.07049413 C62.8636833,8.81875734 63.0875767,9.96016879 63.0875767,11.2845809 C63.0875767,12.608993 62.8636833,13.7505422 62.4569969,14.4986676 C62.1202511,15.1182241 61.6950347,15.4193208 61.1571052,15.4193208 L61.1571052,15.4193208 L61.1571052,15.4193208 Z M36.7660938,9.79246412 L36.7660938,14.5207159 C36.7660938,15.7672701 37.7915175,16.7813527 39.0518412,16.7813527 C40.1511065,16.7813527 40.9816161,16.2419969 41.287432,16.0099388 C41.3044295,15.9969855 41.3267213,15.993127 41.3472019,15.9996037 C41.3676825,16.0060804 41.3835654,16.0220654 41.389835,16.04246 L41.5742998,16.6395548 L42.9363299,16.6395548 L42.9363299,9.79246412 L41.1861435,9.79246412 L41.1861435,14.9123483 C41.1861435,14.9364636 41.1723504,14.9586497 41.1507552,14.9698116 C40.8216723,15.1376541 40.1724231,15.4194586 39.5220592,15.4194586 C38.9676896,15.4194586 38.5162802,14.9732567 38.5162802,14.4246681 L38.5162802,9.79246412 L36.7660938,9.79246412 L36.7660938,9.79246412 L36.7660938,9.79246412 Z M54.2912251,16.639417 L56.0415508,16.639417 L56.0415508,11.9111652 C56.0415508,10.6646111 55.0161272,9.65039057 53.7558035,9.65039057 C52.8280458,9.65039057 52.0837777,10.0449168 51.7227896,10.2800065 C51.7025876,10.2930977 51.676952,10.2942001 51.6559141,10.2829004 C51.6348762,10.2716006 51.6215011,10.249828 51.6215011,10.2259883 L51.6215011,5.92974478 L49.8713147,5.92974478 L49.8713147,16.639417 L51.6215011,16.639417 L51.6215011,11.519395 C51.6215011,11.4952797 51.6352942,11.4730936 51.6570287,11.4620695 C51.9859724,11.2940892 52.6353609,11.0124225 53.2855854,11.0124225 C53.5542018,11.0124225 53.806796,11.1159116 53.9966944,11.3037353 C54.1865929,11.491559 54.2910858,11.7415313 54.2910858,12.0070752 L54.2910858,16.639417 L54.2912251,16.639417 L54.2912251,16.639417 Z M44.1979075,11.1543583 L45.2631778,11.1543583 C45.2992627,11.1543583 45.3285207,11.1832966 45.3285207,11.2189873 L45.3285207,14.9856588 C45.3285207,15.975764 46.143008,16.7812149 47.14405,16.7812149 C47.5069887,16.7812149 47.865051,16.7294015 48.2094596,16.6271526 L48.2094596,15.3905202 C48.0085546,15.408021 47.7775557,15.4193208 47.6142681,15.4193208 C47.3189015,15.4193208 47.0787071,15.1816129 47.0787071,14.8896111 L47.0787071,11.2188495 C47.0787071,11.1831588 47.1079651,11.1542205 47.14405,11.1542205 L48.2094596,11.1542205 L48.2094596,9.79232632 L47.14405,9.79232632 C47.1079651,9.79232632 47.0787071,9.76338796 47.0787071,9.72769733 L47.0787071,7.4667849 L45.3285207,7.4667849 L45.3285207,9.72769733 C45.3285207,9.76338796 45.2992627,9.79232632 45.2631778,9.79232632 L44.1979075,9.79232632 L44.1979075,11.1543583 L44.1979075,11.1543583 L44.1979075,11.1543583 Z M33.9672167,16.639417 L35.787901,16.639417 L33.0189784,7.08851924 C32.7970355,6.32261742 32.0793783,5.78767123 31.2738077,5.78767123 C30.4682371,5.78767123 29.7505798,6.32261742 29.5284976,7.08851924 L26.7595751,16.639417 L28.5803987,16.639417 L29.3817896,13.8749772 C29.3898703,13.847279 29.4155059,13.8282624 29.4446246,13.8282624 L33.1029907,13.8282624 C33.1321094,13.8282624 33.1578843,13.847279 33.1658258,13.8749772 L33.9672167,16.639417 L33.9672167,16.639417 L33.9672167,16.639417 Z M32.6708081,12.4663682 L29.8770859,12.4663682 C29.8566053,12.4663682 29.8372393,12.4568599 29.8248395,12.4404615 C29.812579,12.4244765 29.8086779,12.4033929 29.8142508,12.3839628 L31.2111119,7.56558871 C31.2191927,7.53789057 31.2448283,7.51887394 31.273947,7.51887394 C31.3030657,7.51887394 31.3287013,7.53789057 31.3366427,7.56558871 L32.7336432,12.3839628 C32.7392161,12.4035307 32.735315,12.4244765 32.7229152,12.4404615 C32.7106547,12.4568599 32.6912887,12.4663682 32.6708081,12.4663682 L32.6708081,12.4663682 L32.6708081,12.4663682 Z" id="Shape"></path>
                    <path d="M16.6065928,18.7115411 L14.2589856,11.5645939 L20.4042828,7.14873858 L12.8080669,7.14873858 L10.4603204,0.00206702544 L10.4596238,0.000137801696 L18.0569542,0.000137801696 L20.405258,7.14804958 L20.4053973,7.14791177 L20.4073479,7.14680936 C21.7710499,11.293538 20.366526,16.0099388 16.6065928,18.7115411 L16.6065928,18.7115411 L16.6065928,18.7115411 Z M4.31349072,18.7115411 L4.31154018,18.7129191 L10.4583699,23.1298769 L16.6065928,18.7116789 L10.4603204,14.2945833 L4.31349072,18.7115411 L4.31349072,18.7115411 L4.31349072,18.7115411 Z M0.514268193,7.14694716 L0.514268193,7.14694716 C-0.921324932,11.5181548 0.74512784,16.1499454 4.3122368,18.7123679 L4.3127941,18.7101631 L6.6606799,11.5636293 L0.516776022,7.14860078 L8.11118068,7.14860078 L10.4590665,0.00192922374 L10.4596238,0 L2.86187535,0 L0.514268193,7.14694716 L0.514268193,7.14694716 L0.514268193,7.14694716 Z" id="Shape"></path>
                </g>
            </g>
        </g>
    </g>
</svg>