<svg xmlns="http://www.w3.org/2000/svg" xmlns:xlink="http://www.w3.org/1999/xlink" width="25" height="26" version="1.1" viewBox="0 0 25 26"><title>Header - Light</title><desc>Created with Sketch.</desc><g id="Identicons" fill="none" fill-rule="evenodd" stroke="none" stroke-width="1"><g id="Main-White" fill="#000" transform="translate(-133.000000, -19.000000)"><g id="Header"><g id="Header---Light" transform="translate(133.000000, 19.000000)"><g id="auth0-logo"><g transform="translate(0.912500, 0.000000)"><path id="Shape" d="M18.4173501,21.0145 L15.8137635,12.9879286 L22.6291344,8.02858333 L14.2046388,8.02858333 L11.6008976,0.00232142857 L11.6001251,0.000154761905 L20.0258568,0.000154761905 L22.630216,8.02780952 L22.6303705,8.02765476 L22.6325337,8.02641667 C24.1449317,12.6835119 22.5872606,17.9803929 18.4173501,21.0145 L18.4173501,21.0145 L18.4173501,21.0145 Z M4.78382711,21.0145 L4.78166389,21.0160476 L11.5987344,25.976631 L18.4173501,21.0146548 L11.6008976,16.0539167 L4.78382711,21.0145 L4.78382711,21.0145 L4.78382711,21.0145 Z M0.570343205,8.02657143 L0.570343205,8.02657143 C-1.02178479,12.9357738 0.826375433,18.137631 4.78243647,21.0154286 L4.78305453,21.0129524 L7.38695019,12.9868452 L0.573124485,8.02842857 L8.99561135,8.02842857 L11.599507,0.00216666667 L11.6001251,0 L3.17392983,0 L0.570343205,8.02657143 L0.570343205,8.02657143 L0.570343205,8.02657143 Z"/></g></g></g></g></g></g></svg>