<svg width="193" height="26" viewBox="0 0 193 26" fill="none" xmlns="http://www.w3.org/2000/svg">
<g clip-path="url(#clip0)">
<path d="M19.6259 0H11.3968L13.9404 7.91978H22.1695L15.5114 12.6407L18.055 20.6035C22.3417 17.4863 23.7404 12.7654 22.1695 7.91978L19.6259 0ZM0.624159 7.91978H8.85322L11.3968 0H3.16777L0.624159 7.91978C-0.946767 12.7654 0.452002 17.4863 4.73869 20.6035L7.2823 12.6407L0.624159 7.91978ZM4.73869 20.6035L11.3968 25.3158L18.055 20.6035L11.3968 15.8138L4.73869 20.6035ZM66.8483 7.722C64.8987 7.722 63.6634 8.60341 63.0781 10.0395H62.9318V3.52133H60.0094V20.5605H62.9963V13.1652C62.9963 11.3336 64.1369 10.2802 65.7379 10.2802C67.3046 10.2802 68.2299 11.2777 68.2299 12.9847V20.5605H71.2168V12.4902C71.2125 9.42892 69.4823 7.722 66.8483 7.722ZM79.2909 3.49124C75.2496 3.49124 72.8135 6.65141 72.8049 12.1462C72.8049 17.654 75.228 20.8571 79.2909 20.8571C83.3495 20.8657 85.7769 17.6626 85.7769 12.1462C85.7726 6.66001 83.3323 3.49124 79.2909 3.49124ZM75.8865 12.1462C75.8951 8.13906 77.2035 6.02798 79.2866 6.02798C80.7112 6.02798 81.7743 7.00827 82.308 8.89578L75.9382 13.5178C75.9038 13.0878 75.8865 12.6321 75.8865 12.1462ZM79.2909 18.286C77.819 18.286 76.7301 17.2455 76.2179 15.2247L82.6221 10.5769C82.6738 11.0628 82.6996 11.5873 82.6996 12.1462C82.6996 16.1835 81.3912 18.286 79.2909 18.286ZM46.564 15.2419C46.564 17.1724 45.1868 18.1269 43.8655 18.1269C42.428 18.1269 41.4725 17.1122 41.4725 15.5042V7.90258H38.4856V15.9642C38.4856 19.004 40.2201 20.7282 42.712 20.7282C44.6101 20.7282 45.9486 19.7307 46.5253 18.3118H46.6587V20.5648H49.5552V7.90258H46.5683V15.2419H46.564ZM31.7285 7.7134C29.0644 7.7134 27.0157 8.90008 26.3572 11.2089L29.1461 11.6045C29.4431 10.7403 30.2867 9.99646 31.7457 9.99646C33.1315 9.99646 33.889 10.7059 33.889 11.9485V11.9958C33.889 12.8514 32.9895 12.8944 30.7558 13.1351C28.2983 13.3974 25.944 14.1326 25.944 16.9832C25.944 19.4727 27.7689 20.7926 30.1834 20.7926C32.1718 20.7926 33.3597 19.8596 33.9063 18.7977H34.0052V20.5347H36.8759V12.0645C36.8802 8.7152 34.1473 7.7134 31.7285 7.7134ZM33.9019 15.9943C33.9019 17.4046 32.7614 18.5999 30.9667 18.5999C29.7229 18.5999 28.8276 18.0323 28.8276 16.9359C28.8276 15.7923 29.8262 15.3107 31.1647 15.1215C31.948 15.014 33.5146 14.8163 33.9019 14.5024V15.9943ZM55.925 4.73811H52.9381V7.90688H51.1262V10.2802H52.9381V17.2885C52.9209 19.6705 54.6554 20.8399 56.8977 20.7754C57.5691 20.7539 58.077 20.6508 58.417 20.5519V18.1871C58.1889 18.2172 57.6595 18.286 57.2765 18.2946C56.5276 18.3118 55.925 18.0323 55.925 16.8285V10.2802H58.4256V7.91118H55.925V4.73811Z" fill="white"/>
<path d="M90.4724 4.56612C90.4724 3.8438 91.0965 3.25046 91.854 3.25046C92.6115 3.25046 93.2355 3.8438 93.2355 4.56612C93.2355 5.28845 92.6115 5.88178 91.854 5.88178C91.0965 5.88178 90.4724 5.28845 90.4724 4.56612ZM90.8641 7.98857H92.8094V20.625H90.8641V7.98857Z" fill="white"/>
<path d="M94.8495 14.339C94.8495 10.3576 97.0574 7.82517 100.251 7.82517C102.721 7.82517 103.479 9.33862 103.909 9.99645H104.073V3.77499H106.018V20.6249H104.142V18.6816H103.909C103.483 19.3738 102.657 20.8872 100.221 20.8872C97.0531 20.8872 94.8495 18.3548 94.8495 14.339ZM104.103 14.3046C104.103 11.4755 102.85 9.56649 100.479 9.56649C98.0086 9.56649 96.7905 11.6389 96.7905 14.3046C96.7905 17.0047 98.043 19.1416 100.479 19.1416C102.82 19.1416 104.103 17.1681 104.103 14.3046Z" fill="white"/>
<path d="M108.321 14.4035C108.321 10.521 110.593 7.82086 114.019 7.82086C116.653 7.82086 119.455 9.43319 119.455 14.1412V14.9624H110.275C110.365 17.6668 111.94 19.1416 114.221 19.1416C115.745 19.1416 116.89 18.4838 117.385 17.1681L119.261 17.6926C118.667 19.6016 116.791 20.8829 114.221 20.8829C110.559 20.8872 108.321 18.286 108.321 14.4035ZM117.479 13.2856C117.479 11.1487 116.128 9.56648 114.019 9.56648C111.794 9.56648 110.404 11.3207 110.27 13.2856H117.479Z" fill="white"/>
<path d="M123.44 20.6249H121.495V7.98855H123.371V9.96204H123.535C124.129 8.68078 125.313 7.82516 127.223 7.82516C129.784 7.82516 131.506 9.373 131.506 12.5977V20.6292H129.561V12.7267C129.561 10.7446 128.467 9.56648 126.66 9.56648C124.8 9.56648 123.432 10.8177 123.432 13.0233V20.6249H123.44Z" fill="white"/>
<path d="M139.644 9.63098H136.942V17.0004C136.942 18.6471 137.764 18.9094 138.62 18.9094C139.046 18.9094 139.313 18.8449 139.477 18.8105L139.873 20.5562C139.61 20.655 139.15 20.7883 138.422 20.7883C136.774 20.7883 134.996 19.7349 134.996 17.5293V9.63098H133.085V7.98425H134.996V4.95737H136.942V7.98425H139.644V9.63098Z" fill="white"/>
<path d="M141.259 4.56612C141.259 3.8438 141.883 3.25046 142.64 3.25046C143.398 3.25046 144.022 3.8438 144.022 4.56612C144.022 5.28845 143.398 5.88178 142.64 5.88178C141.883 5.88178 141.259 5.28845 141.259 4.56612ZM141.65 7.98857H143.596V20.625H141.65V7.98857Z" fill="white"/>
<path d="M145.635 14.3691C145.635 10.5167 147.908 7.82086 151.334 7.82086C154.002 7.82086 156.012 9.3988 156.339 11.7679H154.394C154.097 10.6156 153.077 9.56218 151.364 9.56218C149.092 9.56218 147.577 11.4368 147.577 14.3003C147.577 17.2283 149.057 19.1373 151.364 19.1373C152.879 19.1373 154.032 18.3161 154.394 16.9316H156.339C156.008 19.1717 154.166 20.8786 151.364 20.8786C147.809 20.8872 145.635 18.157 145.635 14.3691Z" fill="white"/>
<path d="M157.656 14.3691C157.656 10.4221 159.963 7.82086 163.389 7.82086C166.815 7.82086 169.122 10.4221 169.122 14.3691C169.122 18.286 166.815 20.8829 163.389 20.8829C159.963 20.8829 157.656 18.286 157.656 14.3691ZM167.177 14.3691C167.177 11.8366 165.989 9.56648 163.389 9.56648C160.785 9.56648 159.602 11.8366 159.602 14.3691C159.602 16.9015 160.79 19.1416 163.389 19.1416C165.989 19.1416 167.177 16.9058 167.177 14.3691Z" fill="white"/>
<path d="M173.103 20.6249H171.158V7.98855H173.034V9.96204H173.198C173.792 8.68078 174.975 7.82516 176.886 7.82516C179.447 7.82516 181.169 9.373 181.169 12.5977V20.6292H179.223V12.7267C179.223 10.7446 178.13 9.56648 176.322 9.56648C174.463 9.56648 173.094 10.8177 173.094 13.0233V20.6249H173.103Z" fill="white"/>
<path d="M191.025 11.3121C190.689 10.4393 189.987 9.50199 188.292 9.50199C186.742 9.50199 185.589 10.2931 185.589 11.3766C185.589 12.3483 186.264 12.847 187.762 13.2211L189.639 13.6812C191.894 14.2315 193 15.3451 193 17.1036C193 19.2835 190.999 20.8872 188.059 20.8872C185.473 20.8872 183.704 19.7435 183.252 17.5981L185.098 17.138C185.442 18.4967 186.441 19.1803 188.029 19.1803C189.841 19.1803 190.994 18.2903 190.994 17.2068C190.994 16.334 190.392 15.7277 189.118 15.4311L187.009 14.9366C184.685 14.3949 183.648 13.2254 183.648 11.4798C183.648 9.33861 185.623 7.82516 188.292 7.82516C190.796 7.82516 192.161 9.02474 192.772 10.8177L191.025 11.3121Z" fill="white"/>
</g>
<defs>
<clipPath id="clip0">
<rect width="193" height="25.3115" fill="white"/>
</clipPath>
</defs>
</svg>
