<?xml version="1.0" encoding="utf-8"?>
<!-- Generator: Adobe Illustrator 23.0.4, SVG Export Plug-In . SVG Version: 6.00 Build 0)  -->
<svg version="1.1" id="Layer_1" xmlns="http://www.w3.org/2000/svg" xmlns:xlink="http://www.w3.org/1999/xlink" x="0px" y="0px"
	 viewBox="0 0 256.9 278.4" style="enable-background:new 0 0 256.9 278.4;" xml:space="preserve">
<style type="text/css">
	.st0{fill:none;stroke:#231F20;stroke-width:8;stroke-linecap:round;stroke-miterlimit:10;}
	.st1{fill:#231F20;}
</style>
<g id="Capa_2">
</g>
<g id="Capa_1">
	<g>
		<g>
			<path class="st0" d="M127.5,9.5H33.8C25.9,33.3,9.5,84.2,9.1,85.8c-12,43.8-2.7,82.8,26.5,117.2c27.4,27.1,66.8,52.2,89.5,68.3
				l6.3,2.5c22.9-15.8,66.9-48.1,89.9-70.9c29.2-34.4,38.5-73.4,26.5-117.2c-0.4-1.6-16.8-52.5-24.7-76.3h-28.8"/>
			<g>
				<path class="st1" d="M128.2,14l-25.1,77.4H21.8l65.8,47.8l-25.1,77.4l65.8-47.8l65.8,47.8L169,139.2l65.8-47.8h-81.3L128.2,14
					L128.2,14z"/>
			</g>
		</g>
		<circle class="st1" cx="184.5" cy="9.7" r="9.7"/>
	</g>
</g>
</svg>
