<?xml version="1.0" encoding="UTF-8"?>
<svg width="92px" height="20px" viewBox="0 0 92 20" version="1.1" xmlns="http://www.w3.org/2000/svg" xmlns:xlink="http://www.w3.org/1999/xlink">
    <!-- Generator: Sketch 55.2 (78181) - https://sketchapp.com -->
    <title>auth0 logo</title>
    <desc>Created with Sketch.</desc>
    <g id="Symbols" stroke="none" stroke-width="1" fill="none" fill-rule="evenodd">
        <g id="Footer" transform="translate(-129.000000, -51.000000)" fill="#FFFFFF">
            <g id="footer">
                <g id="footer-icon" transform="translate(129.000000, 50.000000)">
                    <g id="auth0-logo" transform="translate(0.000000, 1.000000)">
                        <path d="M14.3594303,16.1795423 L12.3294955,9.99970211 L17.6432264,6.18138922 L11.0749114,6.18138922 L9.0448561,0.00178732075 L9.04425375,0.000119154716 L15.6135325,0.000119154716 L17.6440697,6.18079345 L17.6441902,6.1806743 L17.6458768,6.17972106 C18.8250461,9.76532479 17.6105788,13.8435141 14.3594303,16.1795423 L14.3594303,16.1795423 L14.3594303,16.1795423 Z M3.72979998,16.1795423 L3.72811339,16.1807339 L9.04316951,20 L14.3594303,16.1796615 L9.0448561,12.3602762 L3.72979998,16.1795423 L3.72979998,16.1795423 L3.72979998,16.1795423 Z M0.444678712,6.17984021 L0.444678712,6.17984021 C-0.796653555,9.95954697 0.644299011,13.9645753 3.72871574,16.1802573 L3.72919763,16.1783508 L5.75937342,9.99886803 L0.446847188,6.18127007 L7.01359607,6.18127007 L9.04377187,0.00166816603 L9.04425375,0 L2.47461356,0 L0.444678712,6.17984021 L0.444678712,6.17984021 L0.444678712,6.17984021 Z" id="Shape"></path>
                        <path d="M27,6.11797753 L28.2581251,6.11797753 L28.2581251,12.8820225 L27,12.8820225 L27,6.11797753 Z M30.5615581,6.11797753 L32.8243055,6.11797753 C33.3939072,6.11797753 33.8946485,6.20318267 34.3265444,6.37359551 C34.7584402,6.54400834 35.1214777,6.77668392 35.4156676,7.07162921 C35.7035981,7.37312885 35.9211076,7.73033501 36.0682026,8.14325843 C36.2152976,8.55618184 36.288844,9.00842451 36.288844,9.5 C36.288844,9.99157549 36.2152976,10.4438182 36.0682026,10.8567416 C35.9211076,11.269665 35.7035981,11.623594 35.4156676,11.9185393 C35.1214777,12.220039 34.7584402,12.4559917 34.3265444,12.6264045 C33.8946485,12.7968173 33.3939072,12.8820225 32.8243055,12.8820225 L30.5615581,12.8820225 L30.5615581,6.11797753 Z M31.8196832,7.20926966 L31.8196832,11.7907303 L32.7773605,11.7907303 C33.1779595,11.7907303 33.5190895,11.728465 33.8007607,11.6039326 C34.082432,11.4794001 34.3140248,11.312267 34.4955462,11.1025281 C34.6708083,10.8927892 34.7975585,10.6502823 34.8758005,10.375 C34.9540425,10.0997177 34.9931629,9.80805397 34.9931629,9.5 C34.9931629,9.19194603 34.9540425,8.90028228 34.8758005,8.625 C34.7975585,8.34971772 34.6708083,8.10721079 34.4955462,7.89747191 C34.3140248,7.68773303 34.082432,7.52059987 33.8007607,7.39606742 C33.5190895,7.27153496 33.1779595,7.20926966 32.7773605,7.20926966 L31.8196832,7.20926966 Z M38.2448842,6.11797753 L42.9299918,6.11797753 L42.9299918,7.20926966 L39.5030093,7.20926966 L39.5030093,8.91011236 L42.2633733,8.91011236 L42.2633733,9.95224719 L39.5030093,9.95224719 L39.5030093,11.7907303 L43.0144928,11.7907303 L43.0144928,12.8820225 L38.2448842,12.8820225 L38.2448842,6.11797753 Z M45.036256,6.11797753 L46.1723241,6.11797753 L49.4115268,10.6404494 L49.4490828,10.6404494 L49.4115268,6.11797753 L50.6696519,6.11797753 L50.6696519,12.8820225 L49.5523617,12.8820225 L46.294381,8.35955056 L46.2568251,8.35955056 L46.294381,12.8820225 L45.036256,12.8820225 L45.036256,6.11797753 Z M52.2876884,6.11797753 L57.9210843,6.11797753 L57.9210843,7.21910112 L55.7334489,7.21910112 L55.7334489,12.8820225 L54.4753238,12.8820225 L54.4753238,7.21910112 L52.2876884,7.21910112 L52.2876884,6.11797753 Z M59.5391208,6.11797753 L60.7972459,6.11797753 L60.7972459,12.8820225 L59.5391208,12.8820225 L59.5391208,6.11797753 Z M62.7532861,9.5 C62.7532861,9.00187017 62.8283973,8.53979614 62.978622,8.11376404 C63.1288466,7.68773195 63.3447913,7.3174173 63.6264625,7.00280899 C63.9081337,6.68820067 64.2476989,6.44241662 64.6451683,6.26544944 C65.0426376,6.08848226 65.4854807,6 65.9737108,6 C66.7749089,6 67.4274374,6.21301285 67.9313159,6.63904494 C68.4351944,7.06507704 68.7497225,7.65495878 68.8749097,8.40870787 L67.5980066,8.40870787 C67.4915975,7.98267577 67.3022547,7.6631565 67.0299726,7.45014045 C66.7576904,7.2371244 66.4056067,7.13061798 65.9737108,7.13061798 C65.6795209,7.13061798 65.4135021,7.18796759 65.1756464,7.30266854 C64.9377907,7.41736949 64.7374942,7.57958697 64.5747508,7.78932584 C64.4057481,7.99906472 64.2758683,8.24976446 64.1851076,8.54143258 C64.0943469,8.83310071 64.0489672,9.15261999 64.0489672,9.5 C64.0489672,9.84082567 64.0943469,10.1554293 64.1851076,10.4438202 C64.2758683,10.7322112 64.4057481,10.9812724 64.5747508,11.1910112 C64.7437536,11.4073045 64.9456149,11.5744376 65.1803409,11.6924157 C65.4150669,11.8103938 65.6795209,11.869382 65.9737108,11.869382 C66.4306441,11.869382 66.7889871,11.7628756 67.0487505,11.5498596 C67.308514,11.3368435 67.4915975,11.0173242 67.5980066,10.5912921 L68.8749097,10.5912921 C68.8123161,10.9648895 68.6996493,11.3007944 68.536906,11.5990169 C68.3741626,11.8972393 68.1676068,12.1479391 67.9172324,12.3511236 C67.666858,12.5608625 67.3773669,12.7214414 67.0487505,12.8328652 C66.7201341,12.9442889 66.3555319,13 65.9549328,13 C65.454184,13 65.0066465,12.9115177 64.6123068,12.7345506 C64.2179671,12.5575834 63.8830964,12.3117993 63.6076845,11.997191 C63.3322727,11.689137 63.1210225,11.3220995 62.9739275,10.8960674 C62.8268325,10.4700353 62.7532861,10.0046842 62.7532861,9.5 Z M70.4835572,9.5 C70.4835572,8.99531583 70.5617981,8.52996468 70.7182821,8.10393258 C70.8747661,7.67790049 71.09697,7.30758584 71.3849006,6.99297753 C71.6665718,6.68492355 72.0108314,6.44241662 72.4176898,6.26544944 C72.8245482,6.08848226 73.278345,6 73.7790938,6 C74.2673239,6 74.7132966,6.08848226 75.1170254,6.26544944 C75.5207541,6.44241662 75.8665786,6.68492355 76.1545091,6.99297753 C76.4424397,7.30758584 76.6662085,7.67790049 76.8258221,8.10393258 C76.9854358,8.52996468 77.0652415,8.99531583 77.0652415,9.5 C77.0652415,10.0046842 76.9854358,10.4700353 76.8258221,10.8960674 C76.6662085,11.3220995 76.4424397,11.689137 76.1545091,11.997191 C75.8665786,12.3117993 75.5207541,12.5575834 75.1170254,12.7345506 C74.7132966,12.9115177 74.2673239,13 73.7790938,13 C73.278345,13 72.8245482,12.9115177 72.4176898,12.7345506 C72.0108314,12.5575834 71.6665718,12.3117993 71.3849006,11.997191 C71.09697,11.689137 70.8747661,11.3220995 70.7182821,10.8960674 C70.5617981,10.4700353 70.4835572,10.0046842 70.4835572,9.5 Z M71.7792383,9.5 C71.7792383,9.84738001 71.8277476,10.1652607 71.9247677,10.4536517 C72.0217878,10.7420426 72.1579268,10.9911038 72.3331889,11.2008427 C72.5021916,11.4105816 72.7103122,11.5744376 72.9575569,11.6924157 C73.2048017,11.8103938 73.4786446,11.869382 73.7790938,11.869382 C74.0795431,11.869382 74.3518212,11.8103938 74.5959363,11.6924157 C74.8400513,11.5744376 75.0497367,11.4073045 75.2249988,11.1910112 C75.3940015,10.9812724 75.5270109,10.7322112 75.624031,10.4438202 C75.7210511,10.1554293 75.7695604,9.84082567 75.7695604,9.5 C75.7695604,9.15917433 75.7210511,8.84457073 75.624031,8.55617978 C75.5270109,8.26778882 75.3940015,8.01545052 75.2249988,7.7991573 C75.0497367,7.58941843 74.8400513,7.42556239 74.5959363,7.30758427 C74.3518212,7.18960615 74.0795431,7.13061798 73.7790938,7.13061798 C73.4786446,7.13061798 73.2048017,7.18960615 72.9575569,7.30758427 C72.7103122,7.42556239 72.5021916,7.58941843 72.3331889,7.7991573 C72.1579268,8.00889618 72.0217878,8.25959592 71.9247677,8.55126404 C71.8277476,8.84293217 71.7792383,9.15917433 71.7792383,9.5 Z M79.0212817,6.11797753 L80.1573499,6.11797753 L83.3965526,10.6404494 L83.4341085,10.6404494 L83.3965526,6.11797753 L84.6546776,6.11797753 L84.6546776,12.8820225 L83.5373875,12.8820225 L80.2794068,8.35955056 L80.2418508,8.35955056 L80.2794068,12.8820225 L79.0212817,12.8820225 L79.0212817,6.11797753 Z M87.89701,10.8764045 C87.89701,11.2434475 88.0237601,11.5252799 88.2772642,11.7219101 C88.5307683,11.9185403 88.8672038,12.0168539 89.286581,12.0168539 C89.756033,12.0168539 90.1112463,11.9283717 90.3522317,11.7514045 C90.5932171,11.5744373 90.7137079,11.322099 90.7137079,10.994382 C90.7137079,10.8436322 90.6824116,10.7174631 90.619818,10.6158708 C90.5572244,10.5142785 90.4695947,10.4274348 90.3569262,10.3553371 C90.2379983,10.2897937 90.1002945,10.2340826 89.9438105,10.1882022 C89.7873265,10.1423219 89.6151967,10.1029964 89.4274159,10.0702247 L88.9955222,9.99157303 C88.732629,9.94569265 88.4681751,9.88670448 88.2021522,9.81460674 C87.9361294,9.742509 87.6998421,9.63436402 87.4932833,9.49016854 C87.280465,9.3525274 87.1083352,9.16737008 86.9768886,8.93469101 C86.8454421,8.70201195 86.7797198,8.40215539 86.7797198,8.03511236 C86.7797198,7.7467214 86.8391828,7.4779975 86.9581106,7.22893258 C87.0770385,6.97986767 87.2460387,6.7635777 87.4651163,6.58005618 C87.6841939,6.403089 87.9486479,6.26217281 88.2584862,6.15730337 C88.5683245,6.05243393 88.9172786,6 89.3053589,6 C89.6809206,6 90.0220506,6.04587969 90.3287592,6.13764045 C90.6354679,6.22940121 90.898357,6.36048604 91.1174346,6.53089888 C91.3302529,6.70786605 91.4961234,6.92251746 91.6150513,7.17485955 C91.7339791,7.42720164 91.7934421,7.71067258 91.7934421,8.0252809 L90.563484,8.0252809 C90.563484,7.67134654 90.444558,7.40917688 90.2067023,7.23876404 C89.9688466,7.06835121 89.6684018,6.98314607 89.3053589,6.98314607 C88.9423161,6.98314607 88.6387417,7.06015841 88.3946266,7.21418539 C88.1505116,7.36821238 88.0284559,7.5992494 88.0284559,7.90730337 C88.0284559,8.06460753 88.0644467,8.1940538 88.1364293,8.29564607 C88.2084119,8.39723834 88.3069954,8.48080492 88.4321826,8.54634831 C88.5573698,8.61844605 88.7060274,8.67579567 88.8781598,8.71839888 C89.0502922,8.76100209 89.239635,8.8019661 89.4461938,8.84129213 L89.8780875,8.91994382 C90.1347213,8.97237854 90.3897864,9.03628239 90.6432905,9.1116573 C90.8967946,9.18703221 91.123693,9.29353864 91.3239925,9.43117978 C91.524292,9.57537525 91.6870329,9.76217114 91.8122201,9.99157303 C91.9374073,10.2209749 92,10.5126387 92,10.866573 C92,11.1811813 91.940537,11.469568 91.8216091,11.7317416 C91.7026813,11.9939152 91.5274218,12.2167594 91.2958255,12.4002809 C91.0642292,12.5903568 90.7794326,12.7378272 90.4414271,12.8426966 C90.1034217,12.9475661 89.7184768,13 89.286581,13 C88.4290486,13 87.7780849,12.8148427 87.3336704,12.4445225 C86.8892558,12.0742023 86.6670519,11.5515015 86.6670519,10.8764045 L87.89701,10.8764045 Z" id="IDENTICONS"></path>
                    </g>
                </g>
            </g>
        </g>
    </g>
</svg>